<?xml version="1.0" standalone="no"?>
<!DOCTYPE svg PUBLIC "-//W3C//DTD SVG 20010904//EN"
 "http://www.w3.org/TR/2001/REC-SVG-20010904/DTD/svg10.dtd">
<svg version="1.0" xmlns="http://www.w3.org/2000/svg"
 width="616.000000pt" height="616.000000pt" viewBox="0 0 616.000000 616.000000"
 preserveAspectRatio="xMidYMid meet">
<metadata>
Created by potrace 1.11, written by Peter Selinger 2001-2013
</metadata>
<g transform="translate(0.000000,616.000000) scale(0.100000,-0.100000)"
fill="#000000" stroke="none">
<path d="M1057 6154 c-1 -1 -36 -4 -77 -7 -228 -18 -471 -130 -643 -296 -162
-156 -285 -403 -313 -631 -9 -74 -8 -4222 1 -4291 24 -185 105 -373 224 -521
178 -222 402 -348 701 -393 51 -8 4218 -9 4265 -2 17 3 50 8 75 12 67 9 218
61 295 100 241 124 438 355 524 616 52 158 50 65 50 2344 0 2045 -1 2123 -19
2210 -66 315 -248 566 -520 720 -67 38 -192 91 -232 99 -13 2 -45 9 -73 16
-27 6 -80 14 -118 17 -55 4 -4134 11 -4140 7z m3231 -3074 l0 -2877 -1667 2
c-916 1 -1676 5 -1689 8 -12 3 -50 13 -83 22 -77 19 -208 81 -274 129 -166
120 -281 291 -342 506 -17 62 -18 162 -18 2210 l0 2145 23 80 c12 44 32 99 42
122 11 24 20 46 20 49 0 4 24 44 54 88 141 212 347 344 596 383 19 3 36 6 37
7 2 2 745 3 1652 3 l1649 0 0 -2877z m1023 2852 c280 -76 507 -279 598 -537
32 -90 40 -120 47 -165 10 -65 11 -4227 2 -4280 -13 -68 -40 -174 -48 -185 -4
-5 -10 -21 -13 -35 -9 -36 -107 -189 -153 -241 -110 -120 -272 -217 -434 -260
-80 -21 -105 -22 -455 -23 l-370 -1 -3 2865 c-1 1576 0 2870 2 2876 3 9 104
11 378 9 340 -2 380 -4 449 -23z"/>
<path d="M959 5460 c-106 -33 -190 -106 -238 -209 -23 -49 -26 -69 -26 -156 0
-87 3 -107 26 -155 119 -248 437 -308 623 -116 83 85 117 174 112 291 -12 252
-254 421 -497 345z"/>
<path d="M1815 5460 c-94 -30 -170 -97 -219 -194 -36 -72 -40 -86 -40 -160 -1
-95 15 -151 63 -225 127 -195 401 -227 578 -67 53 48 107 139 118 201 54 294
-216 535 -500 445z"/>
<path d="M2695 5466 c-128 -40 -218 -129 -259 -254 -61 -183 24 -377 203 -465
60 -29 74 -32 161 -32 86 0 102 3 161 31 297 141 297 558 1 697 -53 25 -80 31
-146 33 -45 1 -99 -3 -121 -10z"/>
<path d="M3574 5470 c-101 -22 -206 -108 -256 -208 -31 -63 -33 -73 -32 -167
0 -86 4 -108 27 -158 37 -81 125 -167 202 -197 76 -30 205 -34 280 -7 143 49
255 207 255 358 0 100 -54 224 -126 290 -85 78 -229 115 -350 89z"/>
<path d="M980 4125 c-236 -62 -356 -317 -253 -537 63 -134 195 -219 338 -219
131 1 218 40 304 137 114 130 116 353 3 489 -39 47 -117 102 -172 120 -63 21
-162 25 -220 10z"/>
<path d="M1855 4128 c-137 -28 -255 -143 -290 -283 -59 -236 106 -461 346
-473 351 -18 542 376 310 640 -39 44 -129 99 -186 113 -44 11 -134 13 -180 3z"/>
<path d="M2715 4126 c-200 -49 -326 -235 -294 -436 18 -112 105 -233 202 -280
135 -66 278 -56 402 30 179 123 212 392 70 558 -96 112 -243 161 -380 128z"/>
<path d="M3573 4124 c-119 -31 -204 -101 -256 -211 -29 -62 -32 -77 -32 -163
0 -87 3 -101 33 -162 117 -239 418 -294 612 -112 151 142 157 386 13 540 -93
99 -240 142 -370 108z"/>
<path d="M1013 2788 c-173 -25 -312 -179 -321 -354 -8 -150 61 -284 184 -354
271 -156 596 40 579 350 -12 226 -216 391 -442 358z"/>
<path d="M1887 2789 c-229 -26 -386 -269 -318 -489 88 -281 434 -368 640 -162
73 73 112 167 112 268 0 73 -8 108 -43 177 -51 102 -168 190 -269 203 -24 3
-48 6 -54 8 -5 1 -36 -1 -68 -5z"/>
<path d="M2722 2784 c-210 -43 -343 -250 -295 -458 43 -187 205 -311 391 -301
335 19 490 418 254 654 -91 91 -224 131 -350 105z"/>
<path d="M3635 2792 c-48 -5 -133 -31 -167 -51 -58 -36 -117 -102 -150 -168
-58 -118 -45 -284 29 -382 47 -62 57 -71 103 -101 263 -169 598 11 598 321 0
147 -89 284 -225 346 -55 25 -135 40 -188 35z"/>
<path d="M965 1436 c-90 -28 -190 -108 -230 -186 -76 -147 -55 -323 53 -442
79 -87 173 -127 296 -124 77 2 92 5 163 41 128 66 202 178 209 318 6 116 -29
209 -110 291 -43 44 -125 94 -161 100 -5 1 -14 4 -20 7 -19 11 -160 7 -200 -5z"/>
<path d="M1833 1435 c-155 -43 -269 -184 -278 -344 -8 -149 57 -275 181 -354
148 -93 357 -66 477 61 39 43 106 152 92 152 -2 0 0 12 6 27 11 29 13 120 4
168 -18 91 -98 203 -180 251 -88 51 -204 66 -302 39z"/>
<path d="M2667 1426 c-198 -81 -293 -279 -231 -481 31 -99 99 -176 204 -228
59 -29 73 -32 160 -32 82 0 103 4 153 27 141 66 224 186 231 335 7 156 -79
299 -223 367 -90 42 -207 47 -294 12z"/>
<path d="M3573 1440 c-126 -25 -246 -145 -283 -282 -18 -69 -8 -180 23 -250
33 -74 114 -156 192 -193 52 -25 72 -29 150 -29 147 -1 251 51 327 164 67 100
83 216 47 330 -61 193 -249 301 -456 260z"/>
<path d="M5005 5467 c-201 -62 -318 -249 -278 -445 16 -80 44 -133 99 -192
158 -169 445 -153 582 32 53 72 74 130 77 215 6 143 -53 260 -170 337 -89 59
-219 82 -310 53z"/>
<path d="M5015 4126 c-186 -45 -307 -211 -292 -403 15 -202 178 -355 377 -354
85 1 103 5 177 41 195 96 269 346 158 535 -87 146 -257 220 -420 181z"/>
<path d="M5028 2785 c-245 -50 -378 -317 -271 -544 34 -71 108 -145 178 -177
64 -30 83 -34 155 -38 176 -9 339 111 385 284 16 61 12 171 -8 226 -65 178
-255 286 -439 249z"/>
<path d="M4984 1431 c-175 -58 -287 -234 -262 -414 41 -299 388 -438 623 -250
47 38 68 65 99 125 34 67 40 88 42 153 6 153 -59 275 -186 349 -98 58 -210 71
-316 37z"/>
</g>
</svg>
