<?xml version="1.0" encoding="UTF-8"?>
<svg width="257px" height="57px" viewBox="0 0 257 57" version="1.1" xmlns="http://www.w3.org/2000/svg" xmlns:xlink="http://www.w3.org/1999/xlink">
    <!-- Generator: Sketch 57.1 (83088) - https://sketch.com -->
    <title>AroioSU und AroioLT für Aroio Webinterface mit Druck</title>
    <desc>Created with Sketch.</desc>
    <defs>
        <path d="M12.6510641,0.045 C5.54106414,0.235 -0.0889358635,6.105 0.00106413652,13.215 C0.101064137,20.325 5.89106414,26.045 13.0010641,26.045 C20.1110641,26.045 25.9010641,20.335 26.0010641,13.225 C26.1010641,6.115 20.4610641,0.245 13.3510641,0.055" id="path-1"></path>
        <filter x="-18.3%" y="-18.3%" width="136.5%" height="136.6%" filterUnits="objectBoundingBox" id="filter-2">
            <feMorphology radius="0.25" operator="dilate" in="SourceAlpha" result="shadowSpreadOuter1"></feMorphology>
            <feOffset dx="0" dy="0" in="shadowSpreadOuter1" result="shadowOffsetOuter1"></feOffset>
            <feMorphology radius="1" operator="erode" in="SourceAlpha" result="shadowInner"></feMorphology>
            <feOffset dx="0" dy="0" in="shadowInner" result="shadowInner"></feOffset>
            <feComposite in="shadowOffsetOuter1" in2="shadowInner" operator="out" result="shadowOffsetOuter1"></feComposite>
            <feGaussianBlur stdDeviation="1.5" in="shadowOffsetOuter1" result="shadowBlurOuter1"></feGaussianBlur>
            <feColorMatrix values="0 0 0 0 0.66162817   0 0 0 0 0.66162817   0 0 0 0 0.66162817  0 0 0 1 0" type="matrix" in="shadowBlurOuter1"></feColorMatrix>
        </filter>
        <filter x="-233.6%" y="-233.7%" width="567.3%" height="567.3%" filterUnits="objectBoundingBox" id="filter-3">
            <feMorphology radius="14" operator="erode" in="SourceAlpha" result="shadowSpreadInner1"></feMorphology>
            <feGaussianBlur stdDeviation="50" in="shadowSpreadInner1" result="shadowBlurInner1"></feGaussianBlur>
            <feOffset dx="0" dy="1" in="shadowBlurInner1" result="shadowOffsetInner1"></feOffset>
            <feComposite in="shadowOffsetInner1" in2="SourceAlpha" operator="arithmetic" k2="-1" k3="1" result="shadowInnerInner1"></feComposite>
            <feColorMatrix values="0 0 0 0 0.285750679   0 0 0 0 0.285750679   0 0 0 0 0.285750679  0 0 0 0.116395323 0" type="matrix" in="shadowInnerInner1"></feColorMatrix>
        </filter>
        <path d="M12.6510641,0.045 C5.54106414,0.235 -0.0889358635,6.105 0.00106413652,13.215 C0.101064137,20.325 5.89106414,26.045 13.0010641,26.045 C20.1110641,26.045 25.9010641,20.335 26.0010641,13.225 C26.1010641,6.115 20.4610641,0.245 13.3510641,0.055" id="path-4"></path>
        <filter x="-18.3%" y="-18.3%" width="136.5%" height="136.6%" filterUnits="objectBoundingBox" id="filter-5">
            <feMorphology radius="0.25" operator="dilate" in="SourceAlpha" result="shadowSpreadOuter1"></feMorphology>
            <feOffset dx="0" dy="0" in="shadowSpreadOuter1" result="shadowOffsetOuter1"></feOffset>
            <feMorphology radius="1" operator="erode" in="SourceAlpha" result="shadowInner"></feMorphology>
            <feOffset dx="0" dy="0" in="shadowInner" result="shadowInner"></feOffset>
            <feComposite in="shadowOffsetOuter1" in2="shadowInner" operator="out" result="shadowOffsetOuter1"></feComposite>
            <feGaussianBlur stdDeviation="1.5" in="shadowOffsetOuter1" result="shadowBlurOuter1"></feGaussianBlur>
            <feColorMatrix values="0 0 0 0 0.66162817   0 0 0 0 0.66162817   0 0 0 0 0.66162817  0 0 0 1 0" type="matrix" in="shadowBlurOuter1"></feColorMatrix>
        </filter>
        <filter x="-233.6%" y="-233.7%" width="567.3%" height="567.3%" filterUnits="objectBoundingBox" id="filter-6">
            <feMorphology radius="14" operator="erode" in="SourceAlpha" result="shadowSpreadInner1"></feMorphology>
            <feGaussianBlur stdDeviation="50" in="shadowSpreadInner1" result="shadowBlurInner1"></feGaussianBlur>
            <feOffset dx="0" dy="1" in="shadowBlurInner1" result="shadowOffsetInner1"></feOffset>
            <feComposite in="shadowOffsetInner1" in2="SourceAlpha" operator="arithmetic" k2="-1" k3="1" result="shadowInnerInner1"></feComposite>
            <feColorMatrix values="0 0 0 0 0.285750679   0 0 0 0 0.285750679   0 0 0 0 0.285750679  0 0 0 0.116395323 0" type="matrix" in="shadowInnerInner1"></feColorMatrix>
        </filter>
    </defs>
    <g id="Page-1" stroke="none" stroke-width="1" fill="none" fill-rule="evenodd">
        <g id="AroioSU-und-AroioLT-für-Aroio-Webinterface-mit-Druck" transform="translate(1.000000, 1.000000)">
            <rect id="Rectangle" stroke="#E7E7E7" stroke-width="0.5" fill="#F9F9F9" x="0" y="0" width="255" height="55" rx="4"></rect>
            <g id="_741565896" transform="translate(2.000000, 2.000000)" stroke-linejoin="bevel">
                <g id="Circles" opacity="0.525971912" transform="translate(48.310000, 13.820000)" stroke-width="0.5">
                    <path d="M126.15,11.69 C126.15,9.2 124.14,7.19 121.65,7.19 C119.16,7.19 117.15,9.2 117.15,11.69 C117.15,14.18 119.16,16.19 121.65,16.19 C124.14,16.19 126.15,14.18 126.15,11.69 Z" id="Path" stroke="#000000"></path>
                    <path d="M113.45,11.69 C113.45,9.2 111.44,7.19 108.95,7.19 C106.46,7.19 104.45,9.2 104.45,11.69 C104.45,14.18 106.46,16.19 108.95,16.19 C111.44,16.19 113.45,14.18 113.45,11.69 Z" id="Path" stroke="#000000"></path>
                    <path d="M62.65,11.69 C62.65,9.2 60.64,7.19 58.15,7.19 C55.66,7.19 53.65,9.2 53.65,11.69 C53.65,14.18 55.66,16.19 58.15,16.19 C60.64,16.19 62.65,14.18 62.65,11.69 Z" id="Path" stroke="#000000"></path>
                    <path d="M78.73,1.53 C78.73,0.69 78.05,1.11022302e-15 77.2,1.11022302e-15 C76.36,1.11022302e-15 75.67,0.68 75.67,1.53 C75.67,2.37 76.35,3.06 77.2,3.06 C78.04,3.06 78.73,2.38 78.73,1.53 Z" id="Path" stroke="#000000"></path>
                    <path d="M78.73,11.69 C78.73,10.85 78.05,10.16 77.2,10.16 C76.36,10.16 75.67,10.84 75.67,11.69 C75.67,12.53 76.35,13.22 77.2,13.22 C78.04,13.22 78.73,12.54 78.73,11.69 Z" id="Path" stroke="#000000"></path>
                    <path d="M78.73,21.85 C78.73,21.01 78.05,20.32 77.2,20.32 C76.36,20.32 75.67,21 75.67,21.85 C75.67,22.69 76.35,23.38 77.2,23.38 C78.04,23.38 78.73,22.7 78.73,21.85 Z" id="Path" stroke="#000000"></path>
                    <path d="M78.73,16.77 C78.73,15.93 78.05,15.24 77.2,15.24 C76.36,15.24 75.67,15.92 75.67,16.77 C75.67,17.61 76.35,18.3 77.2,18.3 C78.04,18.3 78.73,17.62 78.73,16.77 Z" id="Path" stroke="#000000"></path>
                    <path d="M78.73,6.61 C78.73,5.77 78.05,5.08 77.2,5.08 C76.36,5.08 75.67,5.76 75.67,6.61 C75.67,7.45 76.35,8.14 77.2,8.14 C78.04,8.14 78.73,7.46 78.73,6.61 Z" id="Path" stroke="#000000"></path>
                    <path d="M49.95,11.69 C49.95,9.2 47.94,7.19 45.45,7.19 C42.96,7.19 40.95,9.2 40.95,11.69 C40.95,14.18 42.96,16.19 45.45,16.19 C47.94,16.19 49.95,14.18 49.95,11.69 Z" id="Path" stroke="#000000"></path>
                    <path d="M100.75,11.69 C100.75,9.2 98.74,7.19 96.25,7.19 C93.76,7.19 91.75,9.2 91.75,11.69 C91.75,14.18 93.76,16.19 96.25,16.19 C98.74,16.19 100.75,14.18 100.75,11.69 Z" id="Path" stroke="#000000"></path>
                    <path d="M37.25,11.69 C37.25,9.2 35.24,7.19 32.75,7.19 C30.26,7.19 28.25,9.2 28.25,11.69 C28.25,14.18 30.26,16.19 32.75,16.19 C35.24,16.19 37.25,14.18 37.25,11.69 Z" id="Path" stroke="#000000"></path>
                    <path d="M22.6,11.69 C22.6,10.28 21.46,9.14 20.05,9.14 C18.64,9.14 17.5,10.28 17.5,11.69 C17.5,13.1 18.64,14.24 20.05,14.24 C21.46,14.24 22.6,13.1 22.6,11.69 Z" id="Path" stroke="#000000"></path>
                    <path d="M5.2,11.69 C5.2,10.25 4.04,9.09 2.6,9.09 C1.16,9.09 -5.77315973e-15,10.25 -5.77315973e-15,11.69 C-5.77315973e-15,13.13 1.16,14.29 2.6,14.29 C4.04,14.29 5.2,13.13 5.2,11.69 Z" id="Path" stroke="#000000"></path>
                    <path d="M22.55,11.69 C22.55,10.31 21.43,9.19 20.05,9.19 C18.67,9.19 17.55,10.31 17.55,11.69 C17.55,13.07 18.67,14.19 20.05,14.19 C21.43,14.19 22.55,13.07 22.55,11.69 Z" id="Path" stroke="#000000"></path>
                    <path d="M156.4,11.69 C156.4,9.15 154.34,7.09 151.8,7.09 C149.26,7.09 147.2,9.15 147.2,11.69 C147.2,14.23 149.26,16.29 151.8,16.29 C154.34,16.29 156.4,14.23 156.4,11.69 Z" id="Path" stroke="#000000"></path>
                    <path d="M155.05,11.69 C155.05,9.9 153.59,8.44 151.8,8.44 C150.01,8.44 148.55,9.9 148.55,11.69 C148.55,13.48 150.01,14.94 151.8,14.94 C153.59,14.94 155.05,13.48 155.05,11.69 Z" id="Path" stroke="#7A7A7A"></path>
                </g>
                <g id="Volume" transform="translate(228.008936, 25.965000) rotate(-54.000000) translate(-228.008936, -25.965000) translate(214.508936, 12.465000)">
                    <g id="OnOffLine" transform="translate(12.646064, 0.000000)" stroke="#000000" stroke-width="0.5">
                        <path d="M0.05,13.045 L0.05,0.005" id="Path"></path>
                        <path d="M0.005,0.05 L0.705,0.05" id="Path"></path>
                        <path d="M0.75,0.005 L0.75,13.045" id="Path"></path>
                        <path d="M0.705,13.09 L0.005,13.09" id="Path"></path>
                    </g>
                    <g id="Path">
                        <use fill="black" fill-opacity="1" filter="url(#filter-2)" xlink:href="#path-1"></use>
                        <use fill="black" fill-opacity="1" filter="url(#filter-3)" xlink:href="#path-1"></use>
                        <use stroke="#000000" stroke-width="0.5" xlink:href="#path-1"></use>
                    </g>
                </g>
                <g id="Volume" transform="translate(12.508936, 12.465000)">
                    <g id="OnOffLine" transform="translate(12.646064, 0.000000)" stroke="#000000" stroke-width="0.5">
                        <path d="M0.05,13.045 L0.05,0.005" id="Path"></path>
                        <path d="M0.005,0.05 L0.705,0.05" id="Path"></path>
                        <path d="M0.75,0.005 L0.75,13.045" id="Path"></path>
                        <path d="M0.705,13.09 L0.005,13.09" id="Path"></path>
                    </g>
                    <g id="Path">
                        <use fill="black" fill-opacity="1" filter="url(#filter-5)" xlink:href="#path-4"></use>
                        <use fill="black" fill-opacity="1" filter="url(#filter-6)" xlink:href="#path-4"></use>
                        <use stroke="#000000" stroke-width="0.5" xlink:href="#path-4"></use>
                    </g>
                </g>
                <g id="Schraube-Links-Oben" opacity="0.2" transform="translate(0.460000, 0.460000)" stroke="#000000" stroke-width="0.5">
                    <path d="M7.15,5.68 C7.09,5.69 7.03,5.71 6.98,5.74 C6.92,5.77 6.85,5.81 6.79,5.87 C6.73,5.92 6.68,5.99 6.64,6.05 C6.6,6.12 6.57,6.19 6.55,6.27 C6.53,6.35 6.53,6.43 6.53,6.5 C6.53,6.56 6.54,6.62 6.56,6.68" id="Path"></path>
                    <path d="M6.38,7.19 C7.08,6.79 7.51,6.05 7.51,5.24" id="Path"></path>
                    <path d="M6.58,3.82 C6.56,3.88 6.55,3.94 6.55,4 C6.55,4.07 6.55,4.15 6.57,4.23 C6.59,4.31 6.62,4.38 6.66,4.45 C6.7,4.52 6.75,4.58 6.81,4.63 C6.87,4.68 6.93,4.73 7,4.76 C7.05,4.79 7.11,4.81 7.17,4.82" id="Path"></path>
                    <path d="M7.5,5.25 C7.5,4.45 7.07,3.7 6.37,3.3" id="Path"></path>
                    <path d="M4.68,3.38 C4.72,3.42 4.77,3.46 4.82,3.5 C4.88,3.54 4.95,3.57 5.02,3.6 C5.1,3.62 5.18,3.64 5.25,3.64 C5.33,3.64 5.41,3.63 5.48,3.6 C5.56,3.58 5.63,3.54 5.68,3.5 C5.73,3.47 5.77,3.43 5.82,3.38" id="Path"></path>
                    <path d="M6.38,3.3 C5.68,2.9 4.83,2.9 4.13,3.3" id="Path"></path>
                    <path d="M4.13,3.3 C3.43,3.7 3,4.44 3,5.25" id="Path"></path>
                    <path d="M3.35,4.81 C3.41,4.8 3.47,4.78 3.52,4.75 C3.58,4.72 3.65,4.68 3.71,4.62 C3.77,4.57 3.82,4.5 3.86,4.44 C3.9,4.37 3.93,4.3 3.95,4.22 C3.97,4.14 3.97,4.06 3.97,3.99 C3.97,3.93 3.96,3.87 3.94,3.81" id="Path"></path>
                    <path d="M3,5.25 C3,6.05 3.43,6.8 4.13,7.2" id="Path"></path>
                    <path d="M3.92,6.68 C3.94,6.62 3.95,6.56 3.95,6.5 C3.95,6.43 3.95,6.35 3.93,6.27 C3.91,6.19 3.88,6.12 3.84,6.05 C3.8,5.98 3.75,5.92 3.69,5.87 C3.63,5.82 3.57,5.77 3.5,5.74 C3.45,5.71 3.39,5.69 3.33,5.68" id="Path"></path>
                    <path d="M4.13,7.19 C4.83,7.59 5.68,7.59 6.38,7.19" id="Path"></path>
                    <path d="M5.82,7.11 C5.78,7.07 5.73,7.03 5.68,7 C5.62,6.96 5.55,6.93 5.48,6.9 C5.4,6.88 5.32,6.86 5.25,6.86 C5.17,6.86 5.09,6.87 5.02,6.9 C4.94,6.92 4.87,6.96 4.82,7 C4.77,7.03 4.73,7.07 4.68,7.11" id="Path"></path>
                    <path d="M6.58,6.68 C6.6,6.74 6.6,6.81 6.59,6.87 C6.58,6.93 6.56,7 6.52,7.06 C6.48,7.12 6.43,7.17 6.37,7.2" id="Path"></path>
                    <path d="M6.38,3.3 C6.44,3.33 6.49,3.38 6.53,3.44 C6.57,3.5 6.59,3.56 6.6,3.63 C6.61,3.69 6.6,3.76 6.59,3.82" id="Path"></path>
                    <path d="M7.15,4.81 C7.21,4.82 7.27,4.85 7.32,4.89 C7.37,4.93 7.42,4.98 7.45,5.04 C7.48,5.1 7.5,5.17 7.5,5.24" id="Path"></path>
                    <path d="M4.13,3.3 C4.19,3.27 4.26,3.24 4.33,3.24 C4.4,3.24 4.47,3.25 4.53,3.27 C4.59,3.29 4.64,3.33 4.69,3.38" id="Path"></path>
                    <path d="M5.82,3.38 C5.86,3.33 5.92,3.3 5.98,3.27 C6.04,3.25 6.11,3.23 6.18,3.24 C6.25,3.24 6.32,3.27 6.38,3.3" id="Path"></path>
                    <path d="M3.92,3.82 C3.9,3.76 3.9,3.69 3.91,3.63 C3.92,3.57 3.94,3.5 3.98,3.44 C4.02,3.38 4.07,3.33 4.13,3.3" id="Path"></path>
                    <path d="M3,5.25 C3,5.18 3.02,5.11 3.05,5.05 C3.08,4.99 3.13,4.93 3.18,4.9 C3.23,4.86 3.29,4.83 3.35,4.82" id="Path"></path>
                    <path d="M3.35,5.68 C3.29,5.67 3.23,5.64 3.18,5.6 C3.13,5.56 3.08,5.51 3.05,5.45 C3.02,5.39 3,5.32 3,5.25" id="Path"></path>
                    <path d="M4.13,7.19 C4.07,7.16 4.02,7.11 3.98,7.05 C3.94,6.99 3.92,6.93 3.91,6.86 C3.9,6.8 3.91,6.73 3.92,6.67" id="Path"></path>
                    <path d="M4.68,7.11 C4.64,7.16 4.58,7.19 4.52,7.22 C4.46,7.24 4.39,7.26 4.32,7.25 C4.25,7.25 4.18,7.22 4.12,7.19" id="Path"></path>
                    <path d="M6.38,7.19 C6.32,7.22 6.25,7.25 6.18,7.25 C6.11,7.25 6.04,7.24 5.98,7.22 C5.92,7.2 5.87,7.16 5.82,7.11" id="Path"></path>
                    <path d="M7.5,5.25 C7.5,5.32 7.48,5.39 7.45,5.45 C7.42,5.51 7.37,5.57 7.32,5.6 C7.27,5.64 7.21,5.67 7.15,5.68" id="Path"></path>
                    <path d="M9.9,5.25 C9.9,2.68 7.82,0.6 5.25,0.6 C2.68,0.6 0.6,2.68 0.6,5.25 C0.6,7.82 2.68,9.9 5.25,9.9 C7.82,9.9 9.9,7.82 9.9,5.25 Z" id="Path"></path>
                </g>
                <g id="Schraube-Links-Unten" opacity="0.2" transform="translate(1.060000, 40.660000)" stroke="#000000" stroke-width="0.5">
                    <path d="M2.4,4.65 C2.4,4.58 2.42,4.51 2.45,4.45 C2.48,4.39 2.53,4.33 2.58,4.3 C2.63,4.26 2.69,4.23 2.75,4.22" id="Path"></path>
                    <path d="M2.75,4.21 C2.81,4.2 2.87,4.18 2.92,4.15 C2.98,4.12 3.05,4.08 3.11,4.02 C3.17,3.97 3.22,3.9 3.26,3.84 C3.3,3.77 3.33,3.7 3.35,3.62 C3.37,3.54 3.37,3.46 3.37,3.39 C3.37,3.33 3.36,3.27 3.34,3.21" id="Path"></path>
                    <path d="M3.32,3.22 C3.3,3.16 3.3,3.09 3.31,3.03 C3.32,2.97 3.34,2.9 3.38,2.84 C3.42,2.78 3.47,2.73 3.53,2.7" id="Path"></path>
                    <path d="M3.53,2.7 C2.83,3.1 2.4,3.84 2.4,4.65" id="Path"></path>
                    <path d="M3.53,6.59 C3.47,6.56 3.42,6.51 3.38,6.45 C3.34,6.39 3.32,6.33 3.31,6.26 C3.3,6.2 3.31,6.13 3.32,6.07" id="Path"></path>
                    <path d="M3.32,6.08 C3.34,6.02 3.35,5.96 3.35,5.9 C3.35,5.83 3.35,5.75 3.33,5.67 C3.31,5.59 3.28,5.52 3.24,5.45 C3.2,5.38 3.15,5.32 3.09,5.27 C3.03,5.22 2.97,5.17 2.9,5.14 C2.85,5.11 2.79,5.09 2.73,5.08" id="Path"></path>
                    <path d="M2.75,5.08 C2.69,5.07 2.63,5.04 2.58,5 C2.53,4.96 2.48,4.91 2.45,4.85 C2.42,4.79 2.4,4.72 2.4,4.65" id="Path"></path>
                    <path d="M2.4,4.65 C2.4,5.45 2.83,6.2 3.53,6.6" id="Path"></path>
                    <path d="M5.78,6.59 C5.72,6.62 5.65,6.65 5.58,6.65 C5.51,6.65 5.44,6.64 5.38,6.62 C5.32,6.6 5.27,6.56 5.22,6.51" id="Path"></path>
                    <path d="M5.22,6.51 C5.18,6.47 5.13,6.43 5.08,6.4 C5.02,6.36 4.95,6.33 4.88,6.3 C4.8,6.28 4.72,6.26 4.65,6.26 C4.57,6.26 4.49,6.27 4.42,6.3 C4.34,6.32 4.27,6.36 4.22,6.4 C4.17,6.43 4.13,6.47 4.08,6.51" id="Path"></path>
                    <path d="M4.08,6.51 C4.04,6.56 3.98,6.59 3.92,6.62 C3.86,6.64 3.79,6.66 3.72,6.65 C3.65,6.65 3.58,6.62 3.52,6.59" id="Path"></path>
                    <path d="M3.53,6.59 C4.23,6.99 5.08,6.99 5.78,6.59" id="Path"></path>
                    <path d="M5.98,6.08 C6,6.14 6,6.21 5.99,6.27 C5.98,6.33 5.96,6.4 5.92,6.46 C5.88,6.52 5.83,6.57 5.77,6.6" id="Path"></path>
                    <path d="M5.78,6.59 C6.48,6.19 6.91,5.45 6.91,4.64" id="Path"></path>
                    <path d="M6.9,4.65 C6.9,4.72 6.88,4.79 6.85,4.85 C6.82,4.91 6.77,4.97 6.72,5 C6.67,5.04 6.61,5.07 6.55,5.08" id="Path"></path>
                    <path d="M6.55,5.08 C6.49,5.09 6.43,5.11 6.38,5.14 C6.32,5.17 6.25,5.21 6.19,5.27 C6.13,5.32 6.08,5.39 6.04,5.45 C6,5.52 5.97,5.59 5.95,5.67 C5.93,5.75 5.93,5.83 5.93,5.9 C5.93,5.96 5.94,6.02 5.96,6.08" id="Path"></path>
                    <path d="M6.55,4.21 C6.61,4.22 6.67,4.25 6.72,4.29 C6.77,4.33 6.82,4.38 6.85,4.44 C6.88,4.5 6.9,4.57 6.9,4.64" id="Path"></path>
                    <path d="M6.9,4.65 C6.9,3.85 6.47,3.1 5.77,2.7" id="Path"></path>
                    <path d="M5.78,2.7 C5.84,2.73 5.89,2.78 5.93,2.84 C5.97,2.9 5.99,2.96 6,3.03 C6.01,3.09 6,3.16 5.99,3.22" id="Path"></path>
                    <path d="M5.98,3.22 C5.96,3.28 5.95,3.34 5.95,3.4 C5.95,3.47 5.95,3.55 5.97,3.63 C5.99,3.71 6.02,3.78 6.06,3.85 C6.1,3.92 6.15,3.98 6.21,4.03 C6.27,4.08 6.33,4.13 6.4,4.16 C6.45,4.19 6.51,4.21 6.57,4.22" id="Path"></path>
                    <path d="M5.22,2.78 C5.26,2.73 5.32,2.7 5.38,2.67 C5.44,2.65 5.51,2.63 5.58,2.64 C5.65,2.64 5.72,2.67 5.78,2.7" id="Path"></path>
                    <path d="M5.78,2.7 C5.08,2.3 4.23,2.3 3.53,2.7" id="Path"></path>
                    <path d="M3.53,2.7 C3.59,2.67 3.66,2.64 3.73,2.64 C3.8,2.64 3.87,2.65 3.93,2.67 C3.99,2.69 4.04,2.73 4.09,2.78" id="Path"></path>
                    <path d="M4.08,2.78 C4.12,2.82 4.17,2.86 4.22,2.9 C4.28,2.94 4.35,2.97 4.42,3 C4.5,3.02 4.58,3.04 4.65,3.04 C4.73,3.04 4.81,3.03 4.88,3 C4.96,2.98 5.03,2.94 5.08,2.9 C5.13,2.87 5.17,2.83 5.22,2.78" id="Path"></path>
                    <path d="M9.3,4.65 C9.3,2.08 7.22,0 4.65,0 C2.08,0 0,2.08 0,4.65 C0,7.22 2.08,9.3 4.65,9.3 C7.22,9.3 9.3,7.22 9.3,4.65 Z" id="Path"></path>
                </g>
                <g id="Schraube-Rechts-Oben" opacity="0.2" transform="translate(240.660000, 1.060000)" stroke="#000000" stroke-width="0.5">
                    <path d="M2.4,4.65 C2.4,4.58 2.42,4.51 2.45,4.45 C2.48,4.39 2.53,4.33 2.58,4.3 C2.63,4.26 2.69,4.23 2.75,4.22" id="Path"></path>
                    <path d="M2.75,4.21 C2.81,4.2 2.87,4.18 2.92,4.15 C2.98,4.12 3.05,4.08 3.11,4.02 C3.17,3.97 3.22,3.9 3.26,3.84 C3.3,3.77 3.33,3.7 3.35,3.62 C3.37,3.54 3.37,3.46 3.37,3.39 C3.37,3.33 3.36,3.27 3.34,3.21" id="Path"></path>
                    <path d="M3.32,3.22 C3.3,3.16 3.3,3.09 3.31,3.03 C3.32,2.97 3.34,2.9 3.38,2.84 C3.42,2.78 3.47,2.73 3.53,2.7" id="Path"></path>
                    <path d="M3.53,2.7 C2.83,3.1 2.4,3.84 2.4,4.65" id="Path"></path>
                    <path d="M3.53,6.59 C3.47,6.56 3.42,6.51 3.38,6.45 C3.34,6.39 3.32,6.33 3.31,6.26 C3.3,6.2 3.31,6.13 3.32,6.07" id="Path"></path>
                    <path d="M3.32,6.08 C3.34,6.02 3.35,5.96 3.35,5.9 C3.35,5.83 3.35,5.75 3.33,5.67 C3.31,5.59 3.28,5.52 3.24,5.45 C3.2,5.38 3.15,5.32 3.09,5.27 C3.03,5.22 2.97,5.17 2.9,5.14 C2.85,5.11 2.79,5.09 2.73,5.08" id="Path"></path>
                    <path d="M2.75,5.08 C2.69,5.07 2.63,5.04 2.58,5 C2.53,4.96 2.48,4.91 2.45,4.85 C2.42,4.79 2.4,4.72 2.4,4.65" id="Path"></path>
                    <path d="M2.4,4.65 C2.4,5.45 2.83,6.2 3.53,6.6" id="Path"></path>
                    <path d="M5.78,6.59 C5.72,6.62 5.65,6.65 5.58,6.65 C5.51,6.65 5.44,6.64 5.38,6.62 C5.32,6.6 5.27,6.56 5.22,6.51" id="Path"></path>
                    <path d="M5.22,6.51 C5.18,6.47 5.13,6.43 5.08,6.4 C5.02,6.36 4.95,6.33 4.88,6.3 C4.8,6.28 4.72,6.26 4.65,6.26 C4.57,6.26 4.49,6.27 4.42,6.3 C4.34,6.32 4.27,6.36 4.22,6.4 C4.17,6.43 4.13,6.47 4.08,6.51" id="Path"></path>
                    <path d="M4.08,6.51 C4.04,6.56 3.98,6.59 3.92,6.62 C3.86,6.64 3.79,6.66 3.72,6.65 C3.65,6.65 3.58,6.62 3.52,6.59" id="Path"></path>
                    <path d="M3.53,6.59 C4.23,6.99 5.08,6.99 5.78,6.59" id="Path"></path>
                    <path d="M5.98,6.08 C6,6.14 6,6.21 5.99,6.27 C5.98,6.33 5.96,6.4 5.92,6.46 C5.88,6.52 5.83,6.57 5.77,6.6" id="Path"></path>
                    <path d="M5.78,6.59 C6.48,6.19 6.91,5.45 6.91,4.64" id="Path"></path>
                    <path d="M6.9,4.65 C6.9,4.72 6.88,4.79 6.85,4.85 C6.82,4.91 6.77,4.97 6.72,5 C6.67,5.04 6.61,5.07 6.55,5.08" id="Path"></path>
                    <path d="M6.55,5.08 C6.49,5.09 6.43,5.11 6.38,5.14 C6.32,5.17 6.25,5.21 6.19,5.27 C6.13,5.32 6.08,5.39 6.04,5.45 C6,5.52 5.97,5.59 5.95,5.67 C5.93,5.75 5.93,5.83 5.93,5.9 C5.93,5.96 5.94,6.02 5.96,6.08" id="Path"></path>
                    <path d="M6.55,4.21 C6.61,4.22 6.67,4.25 6.72,4.29 C6.77,4.33 6.82,4.38 6.85,4.44 C6.88,4.5 6.9,4.57 6.9,4.64" id="Path"></path>
                    <path d="M6.9,4.65 C6.9,3.85 6.47,3.1 5.77,2.7" id="Path"></path>
                    <path d="M5.78,2.7 C5.84,2.73 5.89,2.78 5.93,2.84 C5.97,2.9 5.99,2.96 6,3.03 C6.01,3.09 6,3.16 5.99,3.22" id="Path"></path>
                    <path d="M5.98,3.22 C5.96,3.28 5.95,3.34 5.95,3.4 C5.95,3.47 5.95,3.55 5.97,3.63 C5.99,3.71 6.02,3.78 6.06,3.85 C6.1,3.92 6.15,3.98 6.21,4.03 C6.27,4.08 6.33,4.13 6.4,4.16 C6.45,4.19 6.51,4.21 6.57,4.22" id="Path"></path>
                    <path d="M5.22,2.78 C5.26,2.73 5.32,2.7 5.38,2.67 C5.44,2.65 5.51,2.63 5.58,2.64 C5.65,2.64 5.72,2.67 5.78,2.7" id="Path"></path>
                    <path d="M5.78,2.7 C5.08,2.3 4.23,2.3 3.53,2.7" id="Path"></path>
                    <path d="M3.53,2.7 C3.59,2.67 3.66,2.64 3.73,2.64 C3.8,2.64 3.87,2.65 3.93,2.67 C3.99,2.69 4.04,2.73 4.09,2.78" id="Path"></path>
                    <path d="M4.08,2.78 C4.12,2.82 4.17,2.86 4.22,2.9 C4.28,2.94 4.35,2.97 4.42,3 C4.5,3.02 4.58,3.04 4.65,3.04 C4.73,3.04 4.81,3.03 4.88,3 C4.96,2.98 5.03,2.94 5.08,2.9 C5.13,2.87 5.17,2.83 5.22,2.78" id="Path"></path>
                    <path d="M9.3,4.65 C9.3,2.08 7.22,-1.77635684e-15 4.65,-1.77635684e-15 C2.08,-1.77635684e-15 -2.30926389e-14,2.08 -2.30926389e-14,4.65 C-2.30926389e-14,7.22 2.08,9.3 4.65,9.3 C7.22,9.3 9.3,7.22 9.3,4.65 Z" id="Path"></path>
                </g>
                <g id="Schraube-Rechts-Unten" opacity="0.2" transform="translate(240.660000, 40.660000)" stroke="#000000" stroke-width="0.5">
                    <path d="M2.4,4.65 C2.4,4.58 2.42,4.51 2.45,4.45 C2.48,4.39 2.53,4.33 2.58,4.3 C2.63,4.26 2.69,4.23 2.75,4.22" id="Path"></path>
                    <path d="M2.75,4.21 C2.81,4.2 2.87,4.18 2.92,4.15 C2.98,4.12 3.05,4.08 3.11,4.02 C3.17,3.97 3.22,3.9 3.26,3.84 C3.3,3.77 3.33,3.7 3.35,3.62 C3.37,3.54 3.37,3.46 3.37,3.39 C3.37,3.33 3.36,3.27 3.34,3.21" id="Path"></path>
                    <path d="M3.32,3.22 C3.3,3.16 3.3,3.09 3.31,3.03 C3.32,2.97 3.34,2.9 3.38,2.84 C3.42,2.78 3.47,2.73 3.53,2.7" id="Path"></path>
                    <path d="M3.53,2.7 C2.83,3.1 2.4,3.84 2.4,4.65" id="Path"></path>
                    <path d="M3.53,6.59 C3.47,6.56 3.42,6.51 3.38,6.45 C3.34,6.39 3.32,6.33 3.31,6.26 C3.3,6.2 3.31,6.13 3.32,6.07" id="Path"></path>
                    <path d="M3.32,6.08 C3.34,6.02 3.35,5.96 3.35,5.9 C3.35,5.83 3.35,5.75 3.33,5.67 C3.31,5.59 3.28,5.52 3.24,5.45 C3.2,5.38 3.15,5.32 3.09,5.27 C3.03,5.22 2.97,5.17 2.9,5.14 C2.85,5.11 2.79,5.09 2.73,5.08" id="Path"></path>
                    <path d="M2.75,5.08 C2.69,5.07 2.63,5.04 2.58,5 C2.53,4.96 2.48,4.91 2.45,4.85 C2.42,4.79 2.4,4.72 2.4,4.65" id="Path"></path>
                    <path d="M2.4,4.65 C2.4,5.45 2.83,6.2 3.53,6.6" id="Path"></path>
                    <path d="M5.78,6.59 C5.72,6.62 5.65,6.65 5.58,6.65 C5.51,6.65 5.44,6.64 5.38,6.62 C5.32,6.6 5.27,6.56 5.22,6.51" id="Path"></path>
                    <path d="M5.22,6.51 C5.18,6.47 5.13,6.43 5.08,6.4 C5.02,6.36 4.95,6.33 4.88,6.3 C4.8,6.28 4.72,6.26 4.65,6.26 C4.57,6.26 4.49,6.27 4.42,6.3 C4.34,6.32 4.27,6.36 4.22,6.4 C4.17,6.43 4.13,6.47 4.08,6.51" id="Path"></path>
                    <path d="M4.08,6.51 C4.04,6.56 3.98,6.59 3.92,6.62 C3.86,6.64 3.79,6.66 3.72,6.65 C3.65,6.65 3.58,6.62 3.52,6.59" id="Path"></path>
                    <path d="M3.53,6.59 C4.23,6.99 5.08,6.99 5.78,6.59" id="Path"></path>
                    <path d="M5.98,6.08 C6,6.14 6,6.21 5.99,6.27 C5.98,6.33 5.96,6.4 5.92,6.46 C5.88,6.52 5.83,6.57 5.77,6.6" id="Path"></path>
                    <path d="M5.78,6.59 C6.48,6.19 6.91,5.45 6.91,4.64" id="Path"></path>
                    <path d="M6.9,4.65 C6.9,4.72 6.88,4.79 6.85,4.85 C6.82,4.91 6.77,4.97 6.72,5 C6.67,5.04 6.61,5.07 6.55,5.08" id="Path"></path>
                    <path d="M6.55,5.08 C6.49,5.09 6.43,5.11 6.38,5.14 C6.32,5.17 6.25,5.21 6.19,5.27 C6.13,5.32 6.08,5.39 6.04,5.45 C6,5.52 5.97,5.59 5.95,5.67 C5.93,5.75 5.93,5.83 5.93,5.9 C5.93,5.96 5.94,6.02 5.96,6.08" id="Path"></path>
                    <path d="M6.55,4.21 C6.61,4.22 6.67,4.25 6.72,4.29 C6.77,4.33 6.82,4.38 6.85,4.44 C6.88,4.5 6.9,4.57 6.9,4.64" id="Path"></path>
                    <path d="M6.9,4.65 C6.9,3.85 6.47,3.1 5.77,2.7" id="Path"></path>
                    <path d="M5.78,2.7 C5.84,2.73 5.89,2.78 5.93,2.84 C5.97,2.9 5.99,2.96 6,3.03 C6.01,3.09 6,3.16 5.99,3.22" id="Path"></path>
                    <path d="M5.98,3.22 C5.96,3.28 5.95,3.34 5.95,3.4 C5.95,3.47 5.95,3.55 5.97,3.63 C5.99,3.71 6.02,3.78 6.06,3.85 C6.1,3.92 6.15,3.98 6.21,4.03 C6.27,4.08 6.33,4.13 6.4,4.16 C6.45,4.19 6.51,4.21 6.57,4.22" id="Path"></path>
                    <path d="M5.22,2.78 C5.26,2.73 5.32,2.7 5.38,2.67 C5.44,2.65 5.51,2.63 5.58,2.64 C5.65,2.64 5.72,2.67 5.78,2.7" id="Path"></path>
                    <path d="M5.78,2.7 C5.08,2.3 4.23,2.3 3.53,2.7" id="Path"></path>
                    <path d="M3.53,2.7 C3.59,2.67 3.66,2.64 3.73,2.64 C3.8,2.64 3.87,2.65 3.93,2.67 C3.99,2.69 4.04,2.73 4.09,2.78" id="Path"></path>
                    <path d="M4.08,2.78 C4.12,2.82 4.17,2.86 4.22,2.9 C4.28,2.94 4.35,2.97 4.42,3 C4.5,3.02 4.58,3.04 4.65,3.04 C4.73,3.04 4.81,3.03 4.88,3 C4.96,2.98 5.03,2.94 5.08,2.9 C5.13,2.87 5.17,2.83 5.22,2.78" id="Path"></path>
                    <path d="M9.3,4.65 C9.3,2.08 7.22,5.32907052e-15 4.65,5.32907052e-15 C2.08,5.32907052e-15 -2.30926389e-14,2.08 -2.30926389e-14,4.65 C-2.30926389e-14,7.22 2.08,9.3 4.65,9.3 C7.22,9.3 9.3,7.22 9.3,4.65 Z" id="Path"></path>
                </g>
            </g>
            <g id="_45768976" opacity="0.523763021" transform="translate(169.360000, 33.600000)" stroke="#2B2A29" stroke-linecap="round" stroke-linejoin="round" stroke-width="0.5">
                <polygon id="Path" points="2.6 1.5 0 0 0 3"></polygon>
                <polygon id="Path" points="5.2 1.5 2.6 0 2.6 3"></polygon>
            </g>
            <text id="Input" fill="#2B2A29" font-family="Helvetica" font-size="3.5277" font-weight="normal">
                <tspan x="142.27" y="36.79">Input</tspan>
            </text>
            <text id="Clean!" fill="#2B2A29" font-family="Helvetica" font-size="2.8222" font-weight="normal">
                <tspan x="116.62" y="23.71">Clean!</tspan>
            </text>
            <text id="Aroio" fill="#2B2A29" font-family="Helvetica" font-size="2.8222" font-weight="normal">
                <tspan x="117.7" y="38.93">Aroio</tspan>
            </text>
            <text id="Aux" fill="#2B2A29" font-family="Helvetica" font-size="2.8222" font-weight="normal">
                <tspan x="119.73" y="33.85">Aux</tspan>
            </text>
            <text id="Mute" fill="#2B2A29" font-family="Helvetica" font-size="2.8222" font-weight="normal">
                <tspan x="118.53" y="28.77">Mute</tspan>
            </text>
            <text id="Network" fill="#2B2A29" font-family="Helvetica" font-size="2.8222" font-weight="normal">
                <tspan x="113.96" y="18.63">Network</tspan>
            </text>
            <text id="IR" fill="#2B2A29" font-family="Helvetica" font-size="2.8222" font-weight="normal">
                <tspan x="69.17" y="33.35">IR</tspan>
            </text>
        </g>
    </g>
</svg>