<?xml version="1.0" encoding="UTF-8"?>
<svg width="257px" height="57px" viewBox="0 0 257 57" version="1.1" xmlns="http://www.w3.org/2000/svg" xmlns:xlink="http://www.w3.org/1999/xlink">
    <!-- Generator: Sketch 57.1 (83088) - https://sketch.com -->
    <title>AroioSU und AroioLT für Aroio Webinterface mit Druck</title>
    <desc>Created with Sketch.</desc>
    <defs>
        <path d="M156.4,11.69 C156.4,9.15 154.34,7.09 151.8,7.09 C149.26,7.09 147.2,9.15 147.2,11.69 C147.2,14.23 149.26,16.29 151.8,16.29 C154.34,16.29 156.4,14.23 156.4,11.69 Z" id="path-1"></path>
        <filter x="-78.8%" y="-78.8%" width="257.6%" height="257.6%" filterUnits="objectBoundingBox" id="filter-2">
            <feGaussianBlur stdDeviation="7" in="SourceAlpha" result="shadowBlurInner1"></feGaussianBlur>
            <feOffset dx="0" dy="0" in="shadowBlurInner1" result="shadowOffsetInner1"></feOffset>
            <feComposite in="shadowOffsetInner1" in2="SourceAlpha" operator="arithmetic" k2="-1" k3="1" result="shadowInnerInner1"></feComposite>
            <feColorMatrix values="0 0 0 0 0   0 0 0 0 0   0 0 0 0 0  0 0 0 1 0" type="matrix" in="shadowInnerInner1"></feColorMatrix>
        </filter>
        <path d="M155.05,11.69 C155.05,9.9 153.59,8.44 151.8,8.44 C150.01,8.44 148.55,9.9 148.55,11.69 C148.55,13.48 150.01,14.94 151.8,14.94 C153.59,14.94 155.05,13.48 155.05,11.69 Z" id="path-3"></path>
        <filter x="-26.9%" y="-26.9%" width="153.8%" height="153.8%" filterUnits="objectBoundingBox" id="filter-4">
            <feGaussianBlur stdDeviation="1.5" in="SourceAlpha" result="shadowBlurInner1"></feGaussianBlur>
            <feOffset dx="0" dy="0" in="shadowBlurInner1" result="shadowOffsetInner1"></feOffset>
            <feComposite in="shadowOffsetInner1" in2="SourceAlpha" operator="arithmetic" k2="-1" k3="1" result="shadowInnerInner1"></feComposite>
            <feColorMatrix values="0 0 0 0 1   0 0 0 0 1   0 0 0 0 1  0 0 0 0.559495192 0" type="matrix" in="shadowInnerInner1"></feColorMatrix>
        </filter>
        <path d="M78.73,22.17 C78.73,21.33 78.05,20.64 77.2,20.64 C76.36,20.64 75.67,21.32 75.67,22.17 C75.67,23.01 76.35,23.7 77.2,23.7 C78.04,23.7 78.73,23.02 78.73,22.17 Z" id="path-5"></path>
        <filter x="-57.2%" y="-57.2%" width="214.4%" height="214.4%" filterUnits="objectBoundingBox" id="filter-6">
            <feMorphology radius="0.25" operator="dilate" in="SourceAlpha" result="shadowSpreadOuter1"></feMorphology>
            <feOffset dx="0" dy="0" in="shadowSpreadOuter1" result="shadowOffsetOuter1"></feOffset>
            <feMorphology radius="1" operator="erode" in="SourceAlpha" result="shadowInner"></feMorphology>
            <feOffset dx="0" dy="0" in="shadowInner" result="shadowInner"></feOffset>
            <feComposite in="shadowOffsetOuter1" in2="shadowInner" operator="out" result="shadowOffsetOuter1"></feComposite>
            <feGaussianBlur stdDeviation="0.5" in="shadowOffsetOuter1" result="shadowBlurOuter1"></feGaussianBlur>
            <feColorMatrix values="0 0 0 0 0   0 0 0 0 0.588235294   0 0 0 0 1  0 0 0 0.340581294 0" type="matrix" in="shadowBlurOuter1"></feColorMatrix>
        </filter>
        <filter x="-73.5%" y="-73.5%" width="247.1%" height="247.1%" filterUnits="objectBoundingBox" id="filter-7">
            <feGaussianBlur stdDeviation="1" in="SourceAlpha" result="shadowBlurInner1"></feGaussianBlur>
            <feOffset dx="0" dy="0" in="shadowBlurInner1" result="shadowOffsetInner1"></feOffset>
            <feComposite in="shadowOffsetInner1" in2="SourceAlpha" operator="arithmetic" k2="-1" k3="1" result="shadowInnerInner1"></feComposite>
            <feColorMatrix values="0 0 0 0 0   0 0 0 0 0.588235294   0 0 0 0 1  0 0 0 1 0" type="matrix" in="shadowInnerInner1"></feColorMatrix>
        </filter>
        <path d="M78.73,17.01 C78.73,16.17 78.05,15.48 77.2,15.48 C76.36,15.48 75.67,16.16 75.67,17.01 C75.67,17.85 76.35,18.54 77.2,18.54 C78.04,18.54 78.73,17.86 78.73,17.01 Z" id="path-8"></path>
        <filter x="-40.8%" y="-40.8%" width="181.7%" height="181.7%" filterUnits="objectBoundingBox" id="filter-9">
            <feGaussianBlur stdDeviation="1" in="SourceAlpha" result="shadowBlurInner1"></feGaussianBlur>
            <feOffset dx="0" dy="0" in="shadowBlurInner1" result="shadowOffsetInner1"></feOffset>
            <feComposite in="shadowOffsetInner1" in2="SourceAlpha" operator="arithmetic" k2="-1" k3="1" result="shadowInnerInner1"></feComposite>
            <feColorMatrix values="0 0 0 0 0.417487545   0 0 0 0 0.417487545   0 0 0 0 0.417487545  0 0 0 1 0" type="matrix" in="shadowInnerInner1"></feColorMatrix>
        </filter>
        <path d="M78.73,11.85 C78.73,11.01 78.05,10.32 77.2,10.32 C76.36,10.32 75.67,11 75.67,11.85 C75.67,12.69 76.35,13.38 77.2,13.38 C78.04,13.38 78.73,12.7 78.73,11.85 Z" id="path-10"></path>
        <filter x="-40.8%" y="-40.8%" width="181.7%" height="181.7%" filterUnits="objectBoundingBox" id="filter-11">
            <feGaussianBlur stdDeviation="1" in="SourceAlpha" result="shadowBlurInner1"></feGaussianBlur>
            <feOffset dx="0" dy="0" in="shadowBlurInner1" result="shadowOffsetInner1"></feOffset>
            <feComposite in="shadowOffsetInner1" in2="SourceAlpha" operator="arithmetic" k2="-1" k3="1" result="shadowInnerInner1"></feComposite>
            <feColorMatrix values="0 0 0 0 0.393540534   0 0 0 0 0.393540534   0 0 0 0 0.393540534  0 0 0 1 0" type="matrix" in="shadowInnerInner1"></feColorMatrix>
        </filter>
        <path d="M78.73,6.69 C78.73,5.85 78.05,5.16 77.2,5.16 C76.36,5.16 75.67,5.84 75.67,6.69 C75.67,7.53 76.35,8.22 77.2,8.22 C78.04,8.22 78.73,7.54 78.73,6.69 Z" id="path-12"></path>
        <filter x="-57.2%" y="-57.2%" width="214.4%" height="214.4%" filterUnits="objectBoundingBox" id="filter-13">
            <feMorphology radius="0.25" operator="dilate" in="SourceAlpha" result="shadowSpreadOuter1"></feMorphology>
            <feOffset dx="0" dy="0" in="shadowSpreadOuter1" result="shadowOffsetOuter1"></feOffset>
            <feMorphology radius="1" operator="erode" in="SourceAlpha" result="shadowInner"></feMorphology>
            <feOffset dx="0" dy="0" in="shadowInner" result="shadowInner"></feOffset>
            <feComposite in="shadowOffsetOuter1" in2="shadowInner" operator="out" result="shadowOffsetOuter1"></feComposite>
            <feGaussianBlur stdDeviation="0.5" in="shadowOffsetOuter1" result="shadowBlurOuter1"></feGaussianBlur>
            <feColorMatrix values="0 0 0 0 0   0 0 0 0 0.588235294   0 0 0 0 1  0 0 0 0.340581294 0" type="matrix" in="shadowBlurOuter1"></feColorMatrix>
        </filter>
        <filter x="-73.5%" y="-73.5%" width="247.1%" height="247.1%" filterUnits="objectBoundingBox" id="filter-14">
            <feGaussianBlur stdDeviation="1" in="SourceAlpha" result="shadowBlurInner1"></feGaussianBlur>
            <feOffset dx="0" dy="0" in="shadowBlurInner1" result="shadowOffsetInner1"></feOffset>
            <feComposite in="shadowOffsetInner1" in2="SourceAlpha" operator="arithmetic" k2="-1" k3="1" result="shadowInnerInner1"></feComposite>
            <feColorMatrix values="0 0 0 0 0   0 0 0 0 0.588235294   0 0 0 0 1  0 0 0 1 0" type="matrix" in="shadowInnerInner1"></feColorMatrix>
        </filter>
        <path d="M78.73,1.53 C78.73,0.69 78.05,1.11022302e-15 77.2,1.11022302e-15 C76.36,1.11022302e-15 75.67,0.68 75.67,1.53 C75.67,2.37 76.35,3.06 77.2,3.06 C78.04,3.06 78.73,2.38 78.73,1.53 Z" id="path-15"></path>
        <filter x="-57.2%" y="-57.2%" width="214.4%" height="214.4%" filterUnits="objectBoundingBox" id="filter-16">
            <feMorphology radius="0.25" operator="dilate" in="SourceAlpha" result="shadowSpreadOuter1"></feMorphology>
            <feOffset dx="0" dy="0" in="shadowSpreadOuter1" result="shadowOffsetOuter1"></feOffset>
            <feMorphology radius="1" operator="erode" in="SourceAlpha" result="shadowInner"></feMorphology>
            <feOffset dx="0" dy="0" in="shadowInner" result="shadowInner"></feOffset>
            <feComposite in="shadowOffsetOuter1" in2="shadowInner" operator="out" result="shadowOffsetOuter1"></feComposite>
            <feGaussianBlur stdDeviation="0.5" in="shadowOffsetOuter1" result="shadowBlurOuter1"></feGaussianBlur>
            <feColorMatrix values="0 0 0 0 0   0 0 0 0 0.588235294   0 0 0 0 1  0 0 0 0.340581294 0" type="matrix" in="shadowBlurOuter1"></feColorMatrix>
        </filter>
        <filter x="-73.5%" y="-73.5%" width="247.1%" height="247.1%" filterUnits="objectBoundingBox" id="filter-17">
            <feGaussianBlur stdDeviation="1" in="SourceAlpha" result="shadowBlurInner1"></feGaussianBlur>
            <feOffset dx="0" dy="0" in="shadowBlurInner1" result="shadowOffsetInner1"></feOffset>
            <feComposite in="shadowOffsetInner1" in2="SourceAlpha" operator="arithmetic" k2="-1" k3="1" result="shadowInnerInner1"></feComposite>
            <feColorMatrix values="0 0 0 0 0   0 0 0 0 0.588235294   0 0 0 0 1  0 0 0 1 0" type="matrix" in="shadowInnerInner1"></feColorMatrix>
        </filter>
        <path d="M63.25,11.69 C63.25,9.2 61.24,7.19 58.75,7.19 C56.26,7.19 54.25,9.2 54.25,11.69 C54.25,14.18 56.26,16.19 58.75,16.19 C61.24,16.19 63.25,14.18 63.25,11.69 Z" id="path-18"></path>
        <filter x="-19.4%" y="-19.4%" width="138.9%" height="138.9%" filterUnits="objectBoundingBox" id="filter-19">
            <feMorphology radius="0.25" operator="dilate" in="SourceAlpha" result="shadowSpreadOuter1"></feMorphology>
            <feOffset dx="0" dy="0" in="shadowSpreadOuter1" result="shadowOffsetOuter1"></feOffset>
            <feMorphology radius="1" operator="erode" in="SourceAlpha" result="shadowInner"></feMorphology>
            <feOffset dx="0" dy="0" in="shadowInner" result="shadowInner"></feOffset>
            <feComposite in="shadowOffsetOuter1" in2="shadowInner" operator="out" result="shadowOffsetOuter1"></feComposite>
            <feGaussianBlur stdDeviation="0.5" in="shadowOffsetOuter1" result="shadowBlurOuter1"></feGaussianBlur>
            <feColorMatrix values="0 0 0 0 0.811764706   0 0 0 0 0.811764706   0 0 0 0 0.811764706  0 0 0 0.520050262 0" type="matrix" in="shadowBlurOuter1"></feColorMatrix>
        </filter>
        <filter x="-47.2%" y="-47.2%" width="194.4%" height="194.4%" filterUnits="objectBoundingBox" id="filter-20">
            <feMorphology radius="1" operator="erode" in="SourceAlpha" result="shadowSpreadInner1"></feMorphology>
            <feGaussianBlur stdDeviation="2.5" in="shadowSpreadInner1" result="shadowBlurInner1"></feGaussianBlur>
            <feOffset dx="0" dy="0" in="shadowBlurInner1" result="shadowOffsetInner1"></feOffset>
            <feComposite in="shadowOffsetInner1" in2="SourceAlpha" operator="arithmetic" k2="-1" k3="1" result="shadowInnerInner1"></feComposite>
            <feColorMatrix values="0 0 0 0 0.82745098   0 0 0 0 0.82745098   0 0 0 0 0.82745098  0 0 0 1 0" type="matrix" in="shadowInnerInner1"></feColorMatrix>
        </filter>
        <path d="M50.25,11.69 C50.25,9.2 48.24,7.19 45.75,7.19 C43.26,7.19 41.25,9.2 41.25,11.69 C41.25,14.18 43.26,16.19 45.75,16.19 C48.24,16.19 50.25,14.18 50.25,11.69 Z" id="path-21"></path>
        <filter x="-19.4%" y="-19.4%" width="138.9%" height="138.9%" filterUnits="objectBoundingBox" id="filter-22">
            <feMorphology radius="0.25" operator="dilate" in="SourceAlpha" result="shadowSpreadOuter1"></feMorphology>
            <feOffset dx="0" dy="0" in="shadowSpreadOuter1" result="shadowOffsetOuter1"></feOffset>
            <feMorphology radius="1" operator="erode" in="SourceAlpha" result="shadowInner"></feMorphology>
            <feOffset dx="0" dy="0" in="shadowInner" result="shadowInner"></feOffset>
            <feComposite in="shadowOffsetOuter1" in2="shadowInner" operator="out" result="shadowOffsetOuter1"></feComposite>
            <feGaussianBlur stdDeviation="0.5" in="shadowOffsetOuter1" result="shadowBlurOuter1"></feGaussianBlur>
            <feColorMatrix values="0 0 0 0 0.812471694   0 0 0 0 0.812471694   0 0 0 0 0.812471694  0 0 0 0.5 0" type="matrix" in="shadowBlurOuter1"></feColorMatrix>
        </filter>
        <filter x="-47.2%" y="-47.2%" width="194.4%" height="194.4%" filterUnits="objectBoundingBox" id="filter-23">
            <feMorphology radius="1" operator="erode" in="SourceAlpha" result="shadowSpreadInner1"></feMorphology>
            <feGaussianBlur stdDeviation="2.5" in="shadowSpreadInner1" result="shadowBlurInner1"></feGaussianBlur>
            <feOffset dx="0" dy="0" in="shadowBlurInner1" result="shadowOffsetInner1"></feOffset>
            <feComposite in="shadowOffsetInner1" in2="SourceAlpha" operator="arithmetic" k2="-1" k3="1" result="shadowInnerInner1"></feComposite>
            <feColorMatrix values="0 0 0 0 0.82745098   0 0 0 0 0.82745098   0 0 0 0 0.82745098  0 0 0 1 0" type="matrix" in="shadowInnerInner1"></feColorMatrix>
        </filter>
        <path d="M37.25,11.69 C37.25,9.2 35.24,7.19 32.75,7.19 C30.26,7.19 28.25,9.2 28.25,11.69 C28.25,14.18 30.26,16.19 32.75,16.19 C35.24,16.19 37.25,14.18 37.25,11.69 Z" id="path-24"></path>
        <filter x="-19.4%" y="-19.4%" width="138.9%" height="138.9%" filterUnits="objectBoundingBox" id="filter-25">
            <feMorphology radius="0.25" operator="dilate" in="SourceAlpha" result="shadowSpreadOuter1"></feMorphology>
            <feOffset dx="0" dy="0" in="shadowSpreadOuter1" result="shadowOffsetOuter1"></feOffset>
            <feMorphology radius="1" operator="erode" in="SourceAlpha" result="shadowInner"></feMorphology>
            <feOffset dx="0" dy="0" in="shadowInner" result="shadowInner"></feOffset>
            <feComposite in="shadowOffsetOuter1" in2="shadowInner" operator="out" result="shadowOffsetOuter1"></feComposite>
            <feGaussianBlur stdDeviation="0.5" in="shadowOffsetOuter1" result="shadowBlurOuter1"></feGaussianBlur>
            <feColorMatrix values="0 0 0 0 0.811764706   0 0 0 0 0.811764706   0 0 0 0 0.811764706  0 0 0 0.536795236 0" type="matrix" in="shadowBlurOuter1"></feColorMatrix>
        </filter>
        <filter x="-47.2%" y="-47.2%" width="194.4%" height="194.4%" filterUnits="objectBoundingBox" id="filter-26">
            <feMorphology radius="1" operator="erode" in="SourceAlpha" result="shadowSpreadInner1"></feMorphology>
            <feGaussianBlur stdDeviation="2.5" in="shadowSpreadInner1" result="shadowBlurInner1"></feGaussianBlur>
            <feOffset dx="0" dy="0" in="shadowBlurInner1" result="shadowOffsetInner1"></feOffset>
            <feComposite in="shadowOffsetInner1" in2="SourceAlpha" operator="arithmetic" k2="-1" k3="1" result="shadowInnerInner1"></feComposite>
            <feColorMatrix values="0 0 0 0 0.82745098   0 0 0 0 0.82745098   0 0 0 0 0.82745098  0 0 0 1 0" type="matrix" in="shadowInnerInner1"></feColorMatrix>
        </filter>
        <path d="M126.25,11.69 C126.25,9.2 124.24,7.19 121.75,7.19 C119.26,7.19 117.25,9.2 117.25,11.69 C117.25,14.18 119.26,16.19 121.75,16.19 C124.24,16.19 126.25,14.18 126.25,11.69 Z" id="path-27"></path>
        <filter x="-19.4%" y="-19.4%" width="138.9%" height="138.9%" filterUnits="objectBoundingBox" id="filter-28">
            <feMorphology radius="0.25" operator="dilate" in="SourceAlpha" result="shadowSpreadOuter1"></feMorphology>
            <feOffset dx="0" dy="0" in="shadowSpreadOuter1" result="shadowOffsetOuter1"></feOffset>
            <feMorphology radius="1" operator="erode" in="SourceAlpha" result="shadowInner"></feMorphology>
            <feOffset dx="0" dy="0" in="shadowInner" result="shadowInner"></feOffset>
            <feComposite in="shadowOffsetOuter1" in2="shadowInner" operator="out" result="shadowOffsetOuter1"></feComposite>
            <feGaussianBlur stdDeviation="0.5" in="shadowOffsetOuter1" result="shadowBlurOuter1"></feGaussianBlur>
            <feColorMatrix values="0 0 0 0 0.811764706   0 0 0 0 0.811764706   0 0 0 0 0.811764706  0 0 0 0.520050262 0" type="matrix" in="shadowBlurOuter1"></feColorMatrix>
        </filter>
        <filter x="-47.2%" y="-47.2%" width="194.4%" height="194.4%" filterUnits="objectBoundingBox" id="filter-29">
            <feMorphology radius="1" operator="erode" in="SourceAlpha" result="shadowSpreadInner1"></feMorphology>
            <feGaussianBlur stdDeviation="2.5" in="shadowSpreadInner1" result="shadowBlurInner1"></feGaussianBlur>
            <feOffset dx="0" dy="0" in="shadowBlurInner1" result="shadowOffsetInner1"></feOffset>
            <feComposite in="shadowOffsetInner1" in2="SourceAlpha" operator="arithmetic" k2="-1" k3="1" result="shadowInnerInner1"></feComposite>
            <feColorMatrix values="0 0 0 0 0.82745098   0 0 0 0 0.82745098   0 0 0 0 0.82745098  0 0 0 1 0" type="matrix" in="shadowInnerInner1"></feColorMatrix>
        </filter>
        <path d="M113.25,11.69 C113.25,9.2 111.24,7.19 108.75,7.19 C106.26,7.19 104.25,9.2 104.25,11.69 C104.25,14.18 106.26,16.19 108.75,16.19 C111.24,16.19 113.25,14.18 113.25,11.69 Z" id="path-30"></path>
        <filter x="-19.4%" y="-19.4%" width="138.9%" height="138.9%" filterUnits="objectBoundingBox" id="filter-31">
            <feMorphology radius="0.25" operator="dilate" in="SourceAlpha" result="shadowSpreadOuter1"></feMorphology>
            <feOffset dx="0" dy="0" in="shadowSpreadOuter1" result="shadowOffsetOuter1"></feOffset>
            <feMorphology radius="1" operator="erode" in="SourceAlpha" result="shadowInner"></feMorphology>
            <feOffset dx="0" dy="0" in="shadowInner" result="shadowInner"></feOffset>
            <feComposite in="shadowOffsetOuter1" in2="shadowInner" operator="out" result="shadowOffsetOuter1"></feComposite>
            <feGaussianBlur stdDeviation="0.5" in="shadowOffsetOuter1" result="shadowBlurOuter1"></feGaussianBlur>
            <feColorMatrix values="0 0 0 0 0.812471694   0 0 0 0 0.812471694   0 0 0 0 0.812471694  0 0 0 0.5 0" type="matrix" in="shadowBlurOuter1"></feColorMatrix>
        </filter>
        <filter x="-47.2%" y="-47.2%" width="194.4%" height="194.4%" filterUnits="objectBoundingBox" id="filter-32">
            <feMorphology radius="1" operator="erode" in="SourceAlpha" result="shadowSpreadInner1"></feMorphology>
            <feGaussianBlur stdDeviation="2.5" in="shadowSpreadInner1" result="shadowBlurInner1"></feGaussianBlur>
            <feOffset dx="0" dy="0" in="shadowBlurInner1" result="shadowOffsetInner1"></feOffset>
            <feComposite in="shadowOffsetInner1" in2="SourceAlpha" operator="arithmetic" k2="-1" k3="1" result="shadowInnerInner1"></feComposite>
            <feColorMatrix values="0 0 0 0 0.82745098   0 0 0 0 0.82745098   0 0 0 0 0.82745098  0 0 0 1 0" type="matrix" in="shadowInnerInner1"></feColorMatrix>
        </filter>
        <path d="M100.25,11.69 C100.25,9.2 98.24,7.19 95.75,7.19 C93.26,7.19 91.25,9.2 91.25,11.69 C91.25,14.18 93.26,16.19 95.75,16.19 C98.24,16.19 100.25,14.18 100.25,11.69 Z" id="path-33"></path>
        <filter x="-19.4%" y="-19.4%" width="138.9%" height="138.9%" filterUnits="objectBoundingBox" id="filter-34">
            <feMorphology radius="0.25" operator="dilate" in="SourceAlpha" result="shadowSpreadOuter1"></feMorphology>
            <feOffset dx="0" dy="0" in="shadowSpreadOuter1" result="shadowOffsetOuter1"></feOffset>
            <feMorphology radius="1" operator="erode" in="SourceAlpha" result="shadowInner"></feMorphology>
            <feOffset dx="0" dy="0" in="shadowInner" result="shadowInner"></feOffset>
            <feComposite in="shadowOffsetOuter1" in2="shadowInner" operator="out" result="shadowOffsetOuter1"></feComposite>
            <feGaussianBlur stdDeviation="0.5" in="shadowOffsetOuter1" result="shadowBlurOuter1"></feGaussianBlur>
            <feColorMatrix values="0 0 0 0 0.811764706   0 0 0 0 0.811764706   0 0 0 0 0.811764706  0 0 0 0.536795236 0" type="matrix" in="shadowBlurOuter1"></feColorMatrix>
        </filter>
        <filter x="-47.2%" y="-47.2%" width="194.4%" height="194.4%" filterUnits="objectBoundingBox" id="filter-35">
            <feMorphology radius="1" operator="erode" in="SourceAlpha" result="shadowSpreadInner1"></feMorphology>
            <feGaussianBlur stdDeviation="2.5" in="shadowSpreadInner1" result="shadowBlurInner1"></feGaussianBlur>
            <feOffset dx="0" dy="0" in="shadowBlurInner1" result="shadowOffsetInner1"></feOffset>
            <feComposite in="shadowOffsetInner1" in2="SourceAlpha" operator="arithmetic" k2="-1" k3="1" result="shadowInnerInner1"></feComposite>
            <feColorMatrix values="0 0 0 0 0.82745098   0 0 0 0 0.82745098   0 0 0 0 0.82745098  0 0 0 1 0" type="matrix" in="shadowInnerInner1"></feColorMatrix>
        </filter>
        <path d="M22.55,11.69 C22.55,10.31 21.43,9.19 20.05,9.19 C18.67,9.19 17.55,10.31 17.55,11.69 C17.55,13.07 18.67,14.19 20.05,14.19 C21.43,14.19 22.55,13.07 22.55,11.69 Z" id="path-36"></path>
        <filter x="-65.0%" y="-65.0%" width="230.0%" height="230.0%" filterUnits="objectBoundingBox" id="filter-37">
            <feMorphology radius="1" operator="erode" in="SourceAlpha" result="shadowSpreadInner1"></feMorphology>
            <feGaussianBlur stdDeviation="2.5" in="shadowSpreadInner1" result="shadowBlurInner1"></feGaussianBlur>
            <feOffset dx="0" dy="0" in="shadowBlurInner1" result="shadowOffsetInner1"></feOffset>
            <feComposite in="shadowOffsetInner1" in2="SourceAlpha" operator="arithmetic" k2="-1" k3="1" result="shadowInnerInner1"></feComposite>
            <feColorMatrix values="0 0 0 0 0.282352941   0 0 0 0 0.282352941   0 0 0 0 0.282352941  0 0 0 1 0" type="matrix" in="shadowInnerInner1"></feColorMatrix>
        </filter>
        <path d="M5.2,11.69 C5.2,10.25 4.04,9.09 2.6,9.09 C1.16,9.09 0,10.25 0,11.69 C0,13.13 1.16,14.29 2.6,14.29 C4.04,14.29 5.2,13.13 5.2,11.69 Z" id="path-38"></path>
        <filter x="-81.7%" y="-81.7%" width="263.5%" height="263.5%" filterUnits="objectBoundingBox" id="filter-39">
            <feMorphology radius="0.75" operator="dilate" in="SourceAlpha" result="shadowSpreadOuter1"></feMorphology>
            <feOffset dx="0" dy="0" in="shadowSpreadOuter1" result="shadowOffsetOuter1"></feOffset>
            <feMorphology radius="1.5" operator="erode" in="SourceAlpha" result="shadowInner"></feMorphology>
            <feOffset dx="0" dy="0" in="shadowInner" result="shadowInner"></feOffset>
            <feComposite in="shadowOffsetOuter1" in2="shadowInner" operator="out" result="shadowOffsetOuter1"></feComposite>
            <feGaussianBlur stdDeviation="1" in="shadowOffsetOuter1" result="shadowBlurOuter1"></feGaussianBlur>
            <feColorMatrix values="0 0 0 0 0.026086128   0 0 0 0 0.658246897   0 0 0 0 1  0 0 0 0.309932255 0" type="matrix" in="shadowBlurOuter1"></feColorMatrix>
        </filter>
        <filter x="-91.3%" y="-91.3%" width="282.7%" height="282.7%" filterUnits="objectBoundingBox" id="filter-40">
            <feMorphology radius="1" operator="erode" in="SourceAlpha" result="shadowSpreadInner1"></feMorphology>
            <feGaussianBlur stdDeviation="1.5" in="shadowSpreadInner1" result="shadowBlurInner1"></feGaussianBlur>
            <feOffset dx="0" dy="0" in="shadowBlurInner1" result="shadowOffsetInner1"></feOffset>
            <feComposite in="shadowOffsetInner1" in2="SourceAlpha" operator="arithmetic" k2="-1" k3="1" result="shadowInnerInner1"></feComposite>
            <feColorMatrix values="0 0 0 0 0   0 0 0 0 0.588286713   0 0 0 0 1  0 0 0 0.60393903 0" type="matrix" in="shadowInnerInner1"></feColorMatrix>
        </filter>
        <path d="M12.6510641,0.045 C5.54106414,0.235 -0.0889358635,6.105 0.00106413652,13.215 C0.101064137,20.325 5.89106414,26.045 13.0010641,26.045 C20.1110641,26.045 25.9010641,20.335 26.0010641,13.225 C26.1010641,6.115 20.4610641,0.245 13.3510641,0.055" id="path-41"></path>
        <filter x="-6.7%" y="-6.8%" width="113.5%" height="113.5%" filterUnits="objectBoundingBox" id="filter-42">
            <feMorphology radius="0.25" operator="dilate" in="SourceAlpha" result="shadowSpreadOuter1"></feMorphology>
            <feOffset dx="0" dy="0" in="shadowSpreadOuter1" result="shadowOffsetOuter1"></feOffset>
            <feMorphology radius="1" operator="erode" in="SourceAlpha" result="shadowInner"></feMorphology>
            <feOffset dx="0" dy="0" in="shadowInner" result="shadowInner"></feOffset>
            <feComposite in="shadowOffsetOuter1" in2="shadowInner" operator="out" result="shadowOffsetOuter1"></feComposite>
            <feGaussianBlur stdDeviation="0.5" in="shadowOffsetOuter1" result="shadowBlurOuter1"></feGaussianBlur>
            <feColorMatrix values="0 0 0 0 0.66162817   0 0 0 0 0.66162817   0 0 0 0 0.66162817  0 0 0 0.652862762 0" type="matrix" in="shadowBlurOuter1"></feColorMatrix>
        </filter>
        <filter x="-225.9%" y="-226.0%" width="551.9%" height="551.9%" filterUnits="objectBoundingBox" id="filter-43">
            <feMorphology radius="14" operator="erode" in="SourceAlpha" result="shadowSpreadInner1"></feMorphology>
            <feGaussianBlur stdDeviation="50" in="shadowSpreadInner1" result="shadowBlurInner1"></feGaussianBlur>
            <feOffset dx="0" dy="1" in="shadowBlurInner1" result="shadowOffsetInner1"></feOffset>
            <feComposite in="shadowOffsetInner1" in2="SourceAlpha" operator="arithmetic" k2="-1" k3="1" result="shadowInnerInner1"></feComposite>
            <feColorMatrix values="0 0 0 0 0.527740036   0 0 0 0 0.527740036   0 0 0 0 0.527740036  0 0 0 0.116395323 0" type="matrix" in="shadowInnerInner1"></feColorMatrix>
        </filter>
        <path d="M12.6510641,0.045 C5.54106414,0.235 -0.0889358635,6.105 0.00106413652,13.215 C0.101064137,20.325 5.89106414,26.045 13.0010641,26.045 C20.1110641,26.045 25.9010641,20.335 26.0010641,13.225 C26.1010641,6.115 20.4610641,0.245 13.3510641,0.055" id="path-44"></path>
        <filter x="-6.7%" y="-6.8%" width="113.5%" height="113.5%" filterUnits="objectBoundingBox" id="filter-45">
            <feMorphology radius="0.25" operator="dilate" in="SourceAlpha" result="shadowSpreadOuter1"></feMorphology>
            <feOffset dx="0" dy="0" in="shadowSpreadOuter1" result="shadowOffsetOuter1"></feOffset>
            <feMorphology radius="1" operator="erode" in="SourceAlpha" result="shadowInner"></feMorphology>
            <feOffset dx="0" dy="0" in="shadowInner" result="shadowInner"></feOffset>
            <feComposite in="shadowOffsetOuter1" in2="shadowInner" operator="out" result="shadowOffsetOuter1"></feComposite>
            <feGaussianBlur stdDeviation="0.5" in="shadowOffsetOuter1" result="shadowBlurOuter1"></feGaussianBlur>
            <feColorMatrix values="0 0 0 0 0.66162817   0 0 0 0 0.66162817   0 0 0 0 0.66162817  0 0 0 0.652862762 0" type="matrix" in="shadowBlurOuter1"></feColorMatrix>
        </filter>
        <filter x="-225.9%" y="-226.0%" width="551.9%" height="551.9%" filterUnits="objectBoundingBox" id="filter-46">
            <feMorphology radius="14" operator="erode" in="SourceAlpha" result="shadowSpreadInner1"></feMorphology>
            <feGaussianBlur stdDeviation="50" in="shadowSpreadInner1" result="shadowBlurInner1"></feGaussianBlur>
            <feOffset dx="0" dy="1" in="shadowBlurInner1" result="shadowOffsetInner1"></feOffset>
            <feComposite in="shadowOffsetInner1" in2="SourceAlpha" operator="arithmetic" k2="-1" k3="1" result="shadowInnerInner1"></feComposite>
            <feColorMatrix values="0 0 0 0 0.527740036   0 0 0 0 0.527740036   0 0 0 0 0.527740036  0 0 0 0.116395323 0" type="matrix" in="shadowInnerInner1"></feColorMatrix>
        </filter>
    </defs>
    <g id="Page-1" stroke="none" stroke-width="1" fill="none" fill-rule="evenodd">
        <g id="AroioSU-und-AroioLT-für-Aroio-Webinterface-mit-Druck" transform="translate(1.000000, 1.000000)">
            <rect id="Rectangle" stroke="#E7E7E7" stroke-width="0.5" fill="#F9F9F9" x="0" y="0" width="255" height="55" rx="4"></rect>
            <g id="_741565896" transform="translate(2.000000, 2.000000)" stroke-linejoin="bevel">
                <g id="Circles" transform="translate(48.310000, 13.820000)">
                    <path d="M22.6,11.69 C22.6,10.28 21.46,9.14 20.05,9.14 C18.64,9.14 17.5,10.28 17.5,11.69 C17.5,13.1 18.64,14.24 20.05,14.24 C21.46,14.24 22.6,13.1 22.6,11.69 Z" id="Path" stroke="#000000" stroke-width="0.5"></path>
                    <g id="Path">
                        <use fill="black" fill-opacity="1" filter="url(#filter-2)" xlink:href="#path-1"></use>
                        <use stroke="#000000" stroke-width="0.5" xlink:href="#path-1"></use>
                    </g>
                    <g id="Path">
                        <use fill="black" fill-opacity="1" filter="url(#filter-4)" xlink:href="#path-3"></use>
                        <use stroke="#7A7A7A" stroke-width="0.5" xlink:href="#path-3"></use>
                    </g>
                    <g id="LED-Aroio">
                        <use fill="black" fill-opacity="1" filter="url(#filter-6)" xlink:href="#path-5"></use>
                        <use fill="black" fill-opacity="1" filter="url(#filter-7)" xlink:href="#path-5"></use>
                        <use stroke="#B2B2B2" stroke-width="0.5" xlink:href="#path-5"></use>
                    </g>
                    <g id="LED-Aux">
                        <use fill="black" fill-opacity="1" filter="url(#filter-9)" xlink:href="#path-8"></use>
                        <use stroke="#B2B2B2" stroke-width="0.5" xlink:href="#path-8"></use>
                    </g>
                    <g id="LED-Mute">
                        <use fill="black" fill-opacity="1" filter="url(#filter-11)" xlink:href="#path-10"></use>
                        <use stroke="#B2B2B2" stroke-width="0.5" xlink:href="#path-10"></use>
                    </g>
                    <g id="LED-Clean">
                        <use fill="black" fill-opacity="1" filter="url(#filter-13)" xlink:href="#path-12"></use>
                        <use fill="black" fill-opacity="1" filter="url(#filter-14)" xlink:href="#path-12"></use>
                        <use stroke="#B2B2B2" stroke-width="0.5" xlink:href="#path-12"></use>
                    </g>
                    <g id="LED-Network">
                        <use fill="black" fill-opacity="1" filter="url(#filter-16)" xlink:href="#path-15"></use>
                        <use fill="black" fill-opacity="1" filter="url(#filter-17)" xlink:href="#path-15"></use>
                        <use stroke="#B2B2B2" stroke-width="0.5" xlink:href="#path-15"></use>
                    </g>
                    <g id="Knopf-3">
                        <use fill="black" fill-opacity="1" filter="url(#filter-19)" xlink:href="#path-18"></use>
                        <use fill="black" fill-opacity="1" filter="url(#filter-20)" xlink:href="#path-18"></use>
                        <use stroke="#D3D3D3" stroke-width="0.5" xlink:href="#path-18"></use>
                    </g>
                    <g id="Knopf-2">
                        <use fill="black" fill-opacity="1" filter="url(#filter-22)" xlink:href="#path-21"></use>
                        <use fill="black" fill-opacity="1" filter="url(#filter-23)" xlink:href="#path-21"></use>
                        <use stroke="#D3D3D3" stroke-width="0.5" xlink:href="#path-21"></use>
                    </g>
                    <g id="Knopf-1">
                        <use fill="black" fill-opacity="1" filter="url(#filter-25)" xlink:href="#path-24"></use>
                        <use fill="black" fill-opacity="1" filter="url(#filter-26)" xlink:href="#path-24"></use>
                        <use stroke="#D3D3D3" stroke-width="0.5" xlink:href="#path-24"></use>
                    </g>
                    <g id="Knopf-3">
                        <use fill="black" fill-opacity="1" filter="url(#filter-28)" xlink:href="#path-27"></use>
                        <use fill="black" fill-opacity="1" filter="url(#filter-29)" xlink:href="#path-27"></use>
                        <use stroke="#D3D3D3" stroke-width="0.5" xlink:href="#path-27"></use>
                    </g>
                    <g id="Knopf-2">
                        <use fill="black" fill-opacity="1" filter="url(#filter-31)" xlink:href="#path-30"></use>
                        <use fill="black" fill-opacity="1" filter="url(#filter-32)" xlink:href="#path-30"></use>
                        <use stroke="#D3D3D3" stroke-width="0.5" xlink:href="#path-30"></use>
                    </g>
                    <g id="Knopf-1">
                        <use fill="black" fill-opacity="1" filter="url(#filter-34)" xlink:href="#path-33"></use>
                        <use fill="black" fill-opacity="1" filter="url(#filter-35)" xlink:href="#path-33"></use>
                        <use stroke="#D3D3D3" stroke-width="0.5" xlink:href="#path-33"></use>
                    </g>
                    <g id="IR-LED">
                        <use fill="black" fill-opacity="1" filter="url(#filter-37)" xlink:href="#path-36"></use>
                        <use stroke="#484848" stroke-width="0.5" xlink:href="#path-36"></use>
                    </g>
                    <g id="LED">
                        <use fill="black" fill-opacity="1" filter="url(#filter-39)" xlink:href="#path-38"></use>
                        <use fill="black" fill-opacity="1" filter="url(#filter-40)" xlink:href="#path-38"></use>
                        <use stroke-opacity="0.515734266" stroke="#979797" stroke-width="0.5" xlink:href="#path-38"></use>
                    </g>
                </g>
                <g id="Volume-REchts" transform="translate(226.008936, 25.965000) rotate(-44.000000) translate(-226.008936, -25.965000) translate(212.508936, 12.465000)">
                    <g id="OnOffLine" transform="translate(11.646064, 0.000000)" opacity="0.473656064" stroke="#000000" stroke-width="0.5">
                        <path d="M1.345,13.035 L1.345,0.035" id="Path"></path>
                    </g>
                    <g id="Path">
                        <use fill="black" fill-opacity="1" filter="url(#filter-42)" xlink:href="#path-41"></use>
                        <use fill="black" fill-opacity="1" filter="url(#filter-43)" xlink:href="#path-41"></use>
                        <use stroke-opacity="0.123688811" stroke="#000000" stroke-width="0.5" xlink:href="#path-41"></use>
                    </g>
                </g>
                <g id="Volume-Links" transform="translate(26.008936, 25.965000) rotate(32.000000) translate(-26.008936, -25.965000) translate(12.508936, 12.465000)">
                    <g id="OnOffLine" transform="translate(11.646064, 0.000000)" opacity="0.473656064" stroke="#000000" stroke-width="0.5">
                        <path d="M1.345,13.035 L1.345,0.035" id="Path"></path>
                    </g>
                    <g id="Path">
                        <use fill="black" fill-opacity="1" filter="url(#filter-45)" xlink:href="#path-44"></use>
                        <use fill="black" fill-opacity="1" filter="url(#filter-46)" xlink:href="#path-44"></use>
                        <use stroke-opacity="0.123688811" stroke="#000000" stroke-width="0.5" xlink:href="#path-44"></use>
                    </g>
                </g>
                <g id="Schraube-Links-Oben" opacity="0.2" transform="translate(0.460000, 0.460000)" stroke="#000000" stroke-width="0.5">
                    <path d="M9.9,5.25 C9.9,2.68 7.82,0.6 5.25,0.6 C2.68,0.6 0.6,2.68 0.6,5.25 C0.6,7.82 2.68,9.9 5.25,9.9 C7.82,9.9 9.9,7.82 9.9,5.25 Z" id="Path" fill="#6E6E6E"></path>
                    <path d="M7.25,5.25 C7.25,4.14462366 6.35537634,3.25 5.25,3.25 C4.14462366,3.25 3.25,4.14462366 3.25,5.25 C3.25,6.35537634 4.14462366,7.25 5.25,7.25 C6.35537634,7.25 7.25,6.35537634 7.25,5.25 Z" id="Path" fill="#A8A8A8"></path>
                    <path d="M7.15,5.68 C7.09,5.69 7.03,5.71 6.98,5.74 C6.92,5.77 6.85,5.81 6.79,5.87 C6.73,5.92 6.68,5.99 6.64,6.05 C6.6,6.12 6.57,6.19 6.55,6.27 C6.53,6.35 6.53,6.43 6.53,6.5 C6.53,6.56 6.54,6.62 6.56,6.68" id="Path"></path>
                    <path d="M6.38,7.19 C7.08,6.79 7.51,6.05 7.51,5.24" id="Path"></path>
                    <path d="M6.58,3.82 C6.56,3.88 6.55,3.94 6.55,4 C6.55,4.07 6.55,4.15 6.57,4.23 C6.59,4.31 6.62,4.38 6.66,4.45 C6.7,4.52 6.75,4.58 6.81,4.63 C6.87,4.68 6.93,4.73 7,4.76 C7.05,4.79 7.11,4.81 7.17,4.82" id="Path"></path>
                    <path d="M7.5,5.25 C7.5,4.45 7.07,3.7 6.37,3.3" id="Path"></path>
                    <path d="M4.68,3.38 C4.72,3.42 4.77,3.46 4.82,3.5 C4.88,3.54 4.95,3.57 5.02,3.6 C5.1,3.62 5.18,3.64 5.25,3.64 C5.33,3.64 5.41,3.63 5.48,3.6 C5.56,3.58 5.63,3.54 5.68,3.5 C5.73,3.47 5.77,3.43 5.82,3.38" id="Path"></path>
                    <path d="M6.38,3.3 C5.68,2.9 4.83,2.9 4.13,3.3" id="Path"></path>
                    <path d="M4.13,3.3 C3.43,3.7 3,4.44 3,5.25" id="Path"></path>
                    <path d="M3.35,4.81 C3.41,4.8 3.47,4.78 3.52,4.75 C3.58,4.72 3.65,4.68 3.71,4.62 C3.77,4.57 3.82,4.5 3.86,4.44 C3.9,4.37 3.93,4.3 3.95,4.22 C3.97,4.14 3.97,4.06 3.97,3.99 C3.97,3.93 3.96,3.87 3.94,3.81" id="Path"></path>
                    <path d="M3,5.25 C3,6.05 3.43,6.8 4.13,7.2" id="Path"></path>
                    <path d="M3.92,6.68 C3.94,6.62 3.95,6.56 3.95,6.5 C3.95,6.43 3.95,6.35 3.93,6.27 C3.91,6.19 3.88,6.12 3.84,6.05 C3.8,5.98 3.75,5.92 3.69,5.87 C3.63,5.82 3.57,5.77 3.5,5.74 C3.45,5.71 3.39,5.69 3.33,5.68" id="Path"></path>
                    <path d="M4.13,7.19 C4.83,7.59 5.68,7.59 6.38,7.19" id="Path"></path>
                    <path d="M5.82,7.11 C5.78,7.07 5.73,7.03 5.68,7 C5.62,6.96 5.55,6.93 5.48,6.9 C5.4,6.88 5.32,6.86 5.25,6.86 C5.17,6.86 5.09,6.87 5.02,6.9 C4.94,6.92 4.87,6.96 4.82,7 C4.77,7.03 4.73,7.07 4.68,7.11" id="Path"></path>
                    <path d="M6.58,6.68 C6.6,6.74 6.6,6.81 6.59,6.87 C6.58,6.93 6.56,7 6.52,7.06 C6.48,7.12 6.43,7.17 6.37,7.2" id="Path"></path>
                    <path d="M6.38,3.3 C6.44,3.33 6.49,3.38 6.53,3.44 C6.57,3.5 6.59,3.56 6.6,3.63 C6.61,3.69 6.6,3.76 6.59,3.82" id="Path"></path>
                    <path d="M7.15,4.81 C7.21,4.82 7.27,4.85 7.32,4.89 C7.37,4.93 7.42,4.98 7.45,5.04 C7.48,5.1 7.5,5.17 7.5,5.24" id="Path"></path>
                    <path d="M4.13,3.3 C4.19,3.27 4.26,3.24 4.33,3.24 C4.4,3.24 4.47,3.25 4.53,3.27 C4.59,3.29 4.64,3.33 4.69,3.38" id="Path"></path>
                    <path d="M5.82,3.38 C5.86,3.33 5.92,3.3 5.98,3.27 C6.04,3.25 6.11,3.23 6.18,3.24 C6.25,3.24 6.32,3.27 6.38,3.3" id="Path"></path>
                    <path d="M3.92,3.82 C3.9,3.76 3.9,3.69 3.91,3.63 C3.92,3.57 3.94,3.5 3.98,3.44 C4.02,3.38 4.07,3.33 4.13,3.3" id="Path"></path>
                    <path d="M3,5.25 C3,5.18 3.02,5.11 3.05,5.05 C3.08,4.99 3.13,4.93 3.18,4.9 C3.23,4.86 3.29,4.83 3.35,4.82" id="Path"></path>
                    <path d="M3.35,5.68 C3.29,5.67 3.23,5.64 3.18,5.6 C3.13,5.56 3.08,5.51 3.05,5.45 C3.02,5.39 3,5.32 3,5.25" id="Path"></path>
                    <path d="M4.13,7.19 C4.07,7.16 4.02,7.11 3.98,7.05 C3.94,6.99 3.92,6.93 3.91,6.86 C3.9,6.8 3.91,6.73 3.92,6.67" id="Path"></path>
                    <path d="M4.68,7.11 C4.64,7.16 4.58,7.19 4.52,7.22 C4.46,7.24 4.39,7.26 4.32,7.25 C4.25,7.25 4.18,7.22 4.12,7.19" id="Path"></path>
                    <path d="M6.38,7.19 C6.32,7.22 6.25,7.25 6.18,7.25 C6.11,7.25 6.04,7.24 5.98,7.22 C5.92,7.2 5.87,7.16 5.82,7.11" id="Path"></path>
                    <path d="M7.5,5.25 C7.5,5.32 7.48,5.39 7.45,5.45 C7.42,5.51 7.37,5.57 7.32,5.6 C7.27,5.64 7.21,5.67 7.15,5.68" id="Path"></path>
                </g>
                <g id="Schraube-Links-Unten" opacity="0.2" transform="translate(0.460000, 39.460000)" stroke="#000000" stroke-width="0.5">
                    <path d="M9.9,5.25 C9.9,2.68 7.82,0.6 5.25,0.6 C2.68,0.6 0.6,2.68 0.6,5.25 C0.6,7.82 2.68,9.9 5.25,9.9 C7.82,9.9 9.9,7.82 9.9,5.25 Z" id="Path" fill="#6E6E6E"></path>
                    <path d="M7.25,5.25 C7.25,4.14462366 6.35537634,3.25 5.25,3.25 C4.14462366,3.25 3.25,4.14462366 3.25,5.25 C3.25,6.35537634 4.14462366,7.25 5.25,7.25 C6.35537634,7.25 7.25,6.35537634 7.25,5.25 Z" id="Path" fill="#A8A8A8"></path>
                    <path d="M7.15,5.68 C7.09,5.69 7.03,5.71 6.98,5.74 C6.92,5.77 6.85,5.81 6.79,5.87 C6.73,5.92 6.68,5.99 6.64,6.05 C6.6,6.12 6.57,6.19 6.55,6.27 C6.53,6.35 6.53,6.43 6.53,6.5 C6.53,6.56 6.54,6.62 6.56,6.68" id="Path"></path>
                    <path d="M6.38,7.19 C7.08,6.79 7.51,6.05 7.51,5.24" id="Path"></path>
                    <path d="M6.58,3.82 C6.56,3.88 6.55,3.94 6.55,4 C6.55,4.07 6.55,4.15 6.57,4.23 C6.59,4.31 6.62,4.38 6.66,4.45 C6.7,4.52 6.75,4.58 6.81,4.63 C6.87,4.68 6.93,4.73 7,4.76 C7.05,4.79 7.11,4.81 7.17,4.82" id="Path"></path>
                    <path d="M7.5,5.25 C7.5,4.45 7.07,3.7 6.37,3.3" id="Path"></path>
                    <path d="M4.68,3.38 C4.72,3.42 4.77,3.46 4.82,3.5 C4.88,3.54 4.95,3.57 5.02,3.6 C5.1,3.62 5.18,3.64 5.25,3.64 C5.33,3.64 5.41,3.63 5.48,3.6 C5.56,3.58 5.63,3.54 5.68,3.5 C5.73,3.47 5.77,3.43 5.82,3.38" id="Path"></path>
                    <path d="M6.38,3.3 C5.68,2.9 4.83,2.9 4.13,3.3" id="Path"></path>
                    <path d="M4.13,3.3 C3.43,3.7 3,4.44 3,5.25" id="Path"></path>
                    <path d="M3.35,4.81 C3.41,4.8 3.47,4.78 3.52,4.75 C3.58,4.72 3.65,4.68 3.71,4.62 C3.77,4.57 3.82,4.5 3.86,4.44 C3.9,4.37 3.93,4.3 3.95,4.22 C3.97,4.14 3.97,4.06 3.97,3.99 C3.97,3.93 3.96,3.87 3.94,3.81" id="Path"></path>
                    <path d="M3,5.25 C3,6.05 3.43,6.8 4.13,7.2" id="Path"></path>
                    <path d="M3.92,6.68 C3.94,6.62 3.95,6.56 3.95,6.5 C3.95,6.43 3.95,6.35 3.93,6.27 C3.91,6.19 3.88,6.12 3.84,6.05 C3.8,5.98 3.75,5.92 3.69,5.87 C3.63,5.82 3.57,5.77 3.5,5.74 C3.45,5.71 3.39,5.69 3.33,5.68" id="Path"></path>
                    <path d="M4.13,7.19 C4.83,7.59 5.68,7.59 6.38,7.19" id="Path"></path>
                    <path d="M5.82,7.11 C5.78,7.07 5.73,7.03 5.68,7 C5.62,6.96 5.55,6.93 5.48,6.9 C5.4,6.88 5.32,6.86 5.25,6.86 C5.17,6.86 5.09,6.87 5.02,6.9 C4.94,6.92 4.87,6.96 4.82,7 C4.77,7.03 4.73,7.07 4.68,7.11" id="Path"></path>
                    <path d="M6.58,6.68 C6.6,6.74 6.6,6.81 6.59,6.87 C6.58,6.93 6.56,7 6.52,7.06 C6.48,7.12 6.43,7.17 6.37,7.2" id="Path"></path>
                    <path d="M6.38,3.3 C6.44,3.33 6.49,3.38 6.53,3.44 C6.57,3.5 6.59,3.56 6.6,3.63 C6.61,3.69 6.6,3.76 6.59,3.82" id="Path"></path>
                    <path d="M7.15,4.81 C7.21,4.82 7.27,4.85 7.32,4.89 C7.37,4.93 7.42,4.98 7.45,5.04 C7.48,5.1 7.5,5.17 7.5,5.24" id="Path"></path>
                    <path d="M4.13,3.3 C4.19,3.27 4.26,3.24 4.33,3.24 C4.4,3.24 4.47,3.25 4.53,3.27 C4.59,3.29 4.64,3.33 4.69,3.38" id="Path"></path>
                    <path d="M5.82,3.38 C5.86,3.33 5.92,3.3 5.98,3.27 C6.04,3.25 6.11,3.23 6.18,3.24 C6.25,3.24 6.32,3.27 6.38,3.3" id="Path"></path>
                    <path d="M3.92,3.82 C3.9,3.76 3.9,3.69 3.91,3.63 C3.92,3.57 3.94,3.5 3.98,3.44 C4.02,3.38 4.07,3.33 4.13,3.3" id="Path"></path>
                    <path d="M3,5.25 C3,5.18 3.02,5.11 3.05,5.05 C3.08,4.99 3.13,4.93 3.18,4.9 C3.23,4.86 3.29,4.83 3.35,4.82" id="Path"></path>
                    <path d="M3.35,5.68 C3.29,5.67 3.23,5.64 3.18,5.6 C3.13,5.56 3.08,5.51 3.05,5.45 C3.02,5.39 3,5.32 3,5.25" id="Path"></path>
                    <path d="M4.13,7.19 C4.07,7.16 4.02,7.11 3.98,7.05 C3.94,6.99 3.92,6.93 3.91,6.86 C3.9,6.8 3.91,6.73 3.92,6.67" id="Path"></path>
                    <path d="M4.68,7.11 C4.64,7.16 4.58,7.19 4.52,7.22 C4.46,7.24 4.39,7.26 4.32,7.25 C4.25,7.25 4.18,7.22 4.12,7.19" id="Path"></path>
                    <path d="M6.38,7.19 C6.32,7.22 6.25,7.25 6.18,7.25 C6.11,7.25 6.04,7.24 5.98,7.22 C5.92,7.2 5.87,7.16 5.82,7.11" id="Path"></path>
                    <path d="M7.5,5.25 C7.5,5.32 7.48,5.39 7.45,5.45 C7.42,5.51 7.37,5.57 7.32,5.6 C7.27,5.64 7.21,5.67 7.15,5.68" id="Path"></path>
                </g>
                <g id="Schraube-Rechts-Oben" opacity="0.2" transform="translate(239.460000, 0.460000)" stroke="#000000" stroke-width="0.5">
                    <path d="M9.9,5.25 C9.9,2.68 7.82,0.6 5.25,0.6 C2.68,0.6 0.6,2.68 0.6,5.25 C0.6,7.82 2.68,9.9 5.25,9.9 C7.82,9.9 9.9,7.82 9.9,5.25 Z" id="Path" fill="#6E6E6E"></path>
                    <path d="M7.25,5.25 C7.25,4.14462366 6.35537634,3.25 5.25,3.25 C4.14462366,3.25 3.25,4.14462366 3.25,5.25 C3.25,6.35537634 4.14462366,7.25 5.25,7.25 C6.35537634,7.25 7.25,6.35537634 7.25,5.25 Z" id="Path" fill="#A8A8A8"></path>
                    <path d="M7.15,5.68 C7.09,5.69 7.03,5.71 6.98,5.74 C6.92,5.77 6.85,5.81 6.79,5.87 C6.73,5.92 6.68,5.99 6.64,6.05 C6.6,6.12 6.57,6.19 6.55,6.27 C6.53,6.35 6.53,6.43 6.53,6.5 C6.53,6.56 6.54,6.62 6.56,6.68" id="Path"></path>
                    <path d="M6.38,7.19 C7.08,6.79 7.51,6.05 7.51,5.24" id="Path"></path>
                    <path d="M6.58,3.82 C6.56,3.88 6.55,3.94 6.55,4 C6.55,4.07 6.55,4.15 6.57,4.23 C6.59,4.31 6.62,4.38 6.66,4.45 C6.7,4.52 6.75,4.58 6.81,4.63 C6.87,4.68 6.93,4.73 7,4.76 C7.05,4.79 7.11,4.81 7.17,4.82" id="Path"></path>
                    <path d="M7.5,5.25 C7.5,4.45 7.07,3.7 6.37,3.3" id="Path"></path>
                    <path d="M4.68,3.38 C4.72,3.42 4.77,3.46 4.82,3.5 C4.88,3.54 4.95,3.57 5.02,3.6 C5.1,3.62 5.18,3.64 5.25,3.64 C5.33,3.64 5.41,3.63 5.48,3.6 C5.56,3.58 5.63,3.54 5.68,3.5 C5.73,3.47 5.77,3.43 5.82,3.38" id="Path"></path>
                    <path d="M6.38,3.3 C5.68,2.9 4.83,2.9 4.13,3.3" id="Path"></path>
                    <path d="M4.13,3.3 C3.43,3.7 3,4.44 3,5.25" id="Path"></path>
                    <path d="M3.35,4.81 C3.41,4.8 3.47,4.78 3.52,4.75 C3.58,4.72 3.65,4.68 3.71,4.62 C3.77,4.57 3.82,4.5 3.86,4.44 C3.9,4.37 3.93,4.3 3.95,4.22 C3.97,4.14 3.97,4.06 3.97,3.99 C3.97,3.93 3.96,3.87 3.94,3.81" id="Path"></path>
                    <path d="M3,5.25 C3,6.05 3.43,6.8 4.13,7.2" id="Path"></path>
                    <path d="M3.92,6.68 C3.94,6.62 3.95,6.56 3.95,6.5 C3.95,6.43 3.95,6.35 3.93,6.27 C3.91,6.19 3.88,6.12 3.84,6.05 C3.8,5.98 3.75,5.92 3.69,5.87 C3.63,5.82 3.57,5.77 3.5,5.74 C3.45,5.71 3.39,5.69 3.33,5.68" id="Path"></path>
                    <path d="M4.13,7.19 C4.83,7.59 5.68,7.59 6.38,7.19" id="Path"></path>
                    <path d="M5.82,7.11 C5.78,7.07 5.73,7.03 5.68,7 C5.62,6.96 5.55,6.93 5.48,6.9 C5.4,6.88 5.32,6.86 5.25,6.86 C5.17,6.86 5.09,6.87 5.02,6.9 C4.94,6.92 4.87,6.96 4.82,7 C4.77,7.03 4.73,7.07 4.68,7.11" id="Path"></path>
                    <path d="M6.58,6.68 C6.6,6.74 6.6,6.81 6.59,6.87 C6.58,6.93 6.56,7 6.52,7.06 C6.48,7.12 6.43,7.17 6.37,7.2" id="Path"></path>
                    <path d="M6.38,3.3 C6.44,3.33 6.49,3.38 6.53,3.44 C6.57,3.5 6.59,3.56 6.6,3.63 C6.61,3.69 6.6,3.76 6.59,3.82" id="Path"></path>
                    <path d="M7.15,4.81 C7.21,4.82 7.27,4.85 7.32,4.89 C7.37,4.93 7.42,4.98 7.45,5.04 C7.48,5.1 7.5,5.17 7.5,5.24" id="Path"></path>
                    <path d="M4.13,3.3 C4.19,3.27 4.26,3.24 4.33,3.24 C4.4,3.24 4.47,3.25 4.53,3.27 C4.59,3.29 4.64,3.33 4.69,3.38" id="Path"></path>
                    <path d="M5.82,3.38 C5.86,3.33 5.92,3.3 5.98,3.27 C6.04,3.25 6.11,3.23 6.18,3.24 C6.25,3.24 6.32,3.27 6.38,3.3" id="Path"></path>
                    <path d="M3.92,3.82 C3.9,3.76 3.9,3.69 3.91,3.63 C3.92,3.57 3.94,3.5 3.98,3.44 C4.02,3.38 4.07,3.33 4.13,3.3" id="Path"></path>
                    <path d="M3,5.25 C3,5.18 3.02,5.11 3.05,5.05 C3.08,4.99 3.13,4.93 3.18,4.9 C3.23,4.86 3.29,4.83 3.35,4.82" id="Path"></path>
                    <path d="M3.35,5.68 C3.29,5.67 3.23,5.64 3.18,5.6 C3.13,5.56 3.08,5.51 3.05,5.45 C3.02,5.39 3,5.32 3,5.25" id="Path"></path>
                    <path d="M4.13,7.19 C4.07,7.16 4.02,7.11 3.98,7.05 C3.94,6.99 3.92,6.93 3.91,6.86 C3.9,6.8 3.91,6.73 3.92,6.67" id="Path"></path>
                    <path d="M4.68,7.11 C4.64,7.16 4.58,7.19 4.52,7.22 C4.46,7.24 4.39,7.26 4.32,7.25 C4.25,7.25 4.18,7.22 4.12,7.19" id="Path"></path>
                    <path d="M6.38,7.19 C6.32,7.22 6.25,7.25 6.18,7.25 C6.11,7.25 6.04,7.24 5.98,7.22 C5.92,7.2 5.87,7.16 5.82,7.11" id="Path"></path>
                    <path d="M7.5,5.25 C7.5,5.32 7.48,5.39 7.45,5.45 C7.42,5.51 7.37,5.57 7.32,5.6 C7.27,5.64 7.21,5.67 7.15,5.68" id="Path"></path>
                </g>
                <g id="Schraube-Rechts-Unten" opacity="0.2" transform="translate(239.460000, 39.460000)" stroke="#000000" stroke-width="0.5">
                    <path d="M9.9,5.25 C9.9,2.68 7.82,0.6 5.25,0.6 C2.68,0.6 0.6,2.68 0.6,5.25 C0.6,7.82 2.68,9.9 5.25,9.9 C7.82,9.9 9.9,7.82 9.9,5.25 Z" id="Path" fill="#6E6E6E"></path>
                    <path d="M7.25,5.25 C7.25,4.14462366 6.35537634,3.25 5.25,3.25 C4.14462366,3.25 3.25,4.14462366 3.25,5.25 C3.25,6.35537634 4.14462366,7.25 5.25,7.25 C6.35537634,7.25 7.25,6.35537634 7.25,5.25 Z" id="Path" fill="#A8A8A8"></path>
                    <path d="M7.15,5.68 C7.09,5.69 7.03,5.71 6.98,5.74 C6.92,5.77 6.85,5.81 6.79,5.87 C6.73,5.92 6.68,5.99 6.64,6.05 C6.6,6.12 6.57,6.19 6.55,6.27 C6.53,6.35 6.53,6.43 6.53,6.5 C6.53,6.56 6.54,6.62 6.56,6.68" id="Path"></path>
                    <path d="M6.38,7.19 C7.08,6.79 7.51,6.05 7.51,5.24" id="Path"></path>
                    <path d="M6.58,3.82 C6.56,3.88 6.55,3.94 6.55,4 C6.55,4.07 6.55,4.15 6.57,4.23 C6.59,4.31 6.62,4.38 6.66,4.45 C6.7,4.52 6.75,4.58 6.81,4.63 C6.87,4.68 6.93,4.73 7,4.76 C7.05,4.79 7.11,4.81 7.17,4.82" id="Path"></path>
                    <path d="M7.5,5.25 C7.5,4.45 7.07,3.7 6.37,3.3" id="Path"></path>
                    <path d="M4.68,3.38 C4.72,3.42 4.77,3.46 4.82,3.5 C4.88,3.54 4.95,3.57 5.02,3.6 C5.1,3.62 5.18,3.64 5.25,3.64 C5.33,3.64 5.41,3.63 5.48,3.6 C5.56,3.58 5.63,3.54 5.68,3.5 C5.73,3.47 5.77,3.43 5.82,3.38" id="Path"></path>
                    <path d="M6.38,3.3 C5.68,2.9 4.83,2.9 4.13,3.3" id="Path"></path>
                    <path d="M4.13,3.3 C3.43,3.7 3,4.44 3,5.25" id="Path"></path>
                    <path d="M3.35,4.81 C3.41,4.8 3.47,4.78 3.52,4.75 C3.58,4.72 3.65,4.68 3.71,4.62 C3.77,4.57 3.82,4.5 3.86,4.44 C3.9,4.37 3.93,4.3 3.95,4.22 C3.97,4.14 3.97,4.06 3.97,3.99 C3.97,3.93 3.96,3.87 3.94,3.81" id="Path"></path>
                    <path d="M3,5.25 C3,6.05 3.43,6.8 4.13,7.2" id="Path"></path>
                    <path d="M3.92,6.68 C3.94,6.62 3.95,6.56 3.95,6.5 C3.95,6.43 3.95,6.35 3.93,6.27 C3.91,6.19 3.88,6.12 3.84,6.05 C3.8,5.98 3.75,5.92 3.69,5.87 C3.63,5.82 3.57,5.77 3.5,5.74 C3.45,5.71 3.39,5.69 3.33,5.68" id="Path"></path>
                    <path d="M4.13,7.19 C4.83,7.59 5.68,7.59 6.38,7.19" id="Path"></path>
                    <path d="M5.82,7.11 C5.78,7.07 5.73,7.03 5.68,7 C5.62,6.96 5.55,6.93 5.48,6.9 C5.4,6.88 5.32,6.86 5.25,6.86 C5.17,6.86 5.09,6.87 5.02,6.9 C4.94,6.92 4.87,6.96 4.82,7 C4.77,7.03 4.73,7.07 4.68,7.11" id="Path"></path>
                    <path d="M6.58,6.68 C6.6,6.74 6.6,6.81 6.59,6.87 C6.58,6.93 6.56,7 6.52,7.06 C6.48,7.12 6.43,7.17 6.37,7.2" id="Path"></path>
                    <path d="M6.38,3.3 C6.44,3.33 6.49,3.38 6.53,3.44 C6.57,3.5 6.59,3.56 6.6,3.63 C6.61,3.69 6.6,3.76 6.59,3.82" id="Path"></path>
                    <path d="M7.15,4.81 C7.21,4.82 7.27,4.85 7.32,4.89 C7.37,4.93 7.42,4.98 7.45,5.04 C7.48,5.1 7.5,5.17 7.5,5.24" id="Path"></path>
                    <path d="M4.13,3.3 C4.19,3.27 4.26,3.24 4.33,3.24 C4.4,3.24 4.47,3.25 4.53,3.27 C4.59,3.29 4.64,3.33 4.69,3.38" id="Path"></path>
                    <path d="M5.82,3.38 C5.86,3.33 5.92,3.3 5.98,3.27 C6.04,3.25 6.11,3.23 6.18,3.24 C6.25,3.24 6.32,3.27 6.38,3.3" id="Path"></path>
                    <path d="M3.92,3.82 C3.9,3.76 3.9,3.69 3.91,3.63 C3.92,3.57 3.94,3.5 3.98,3.44 C4.02,3.38 4.07,3.33 4.13,3.3" id="Path"></path>
                    <path d="M3,5.25 C3,5.18 3.02,5.11 3.05,5.05 C3.08,4.99 3.13,4.93 3.18,4.9 C3.23,4.86 3.29,4.83 3.35,4.82" id="Path"></path>
                    <path d="M3.35,5.68 C3.29,5.67 3.23,5.64 3.18,5.6 C3.13,5.56 3.08,5.51 3.05,5.45 C3.02,5.39 3,5.32 3,5.25" id="Path"></path>
                    <path d="M4.13,7.19 C4.07,7.16 4.02,7.11 3.98,7.05 C3.94,6.99 3.92,6.93 3.91,6.86 C3.9,6.8 3.91,6.73 3.92,6.67" id="Path"></path>
                    <path d="M4.68,7.11 C4.64,7.16 4.58,7.19 4.52,7.22 C4.46,7.24 4.39,7.26 4.32,7.25 C4.25,7.25 4.18,7.22 4.12,7.19" id="Path"></path>
                    <path d="M6.38,7.19 C6.32,7.22 6.25,7.25 6.18,7.25 C6.11,7.25 6.04,7.24 5.98,7.22 C5.92,7.2 5.87,7.16 5.82,7.11" id="Path"></path>
                    <path d="M7.5,5.25 C7.5,5.32 7.48,5.39 7.45,5.45 C7.42,5.51 7.37,5.57 7.32,5.6 C7.27,5.64 7.21,5.67 7.15,5.68" id="Path"></path>
                </g>
            </g>
            <g id="Labels" opacity="0.779320126" transform="translate(15.710000, 3.610000)">
                <path d="M34.46,17.77 C34.46,17.46 34.51,17.2 34.6,16.99 C34.67,16.84 34.76,16.7 34.88,16.57 C35,16.45 35.13,16.36 35.27,16.3 C35.46,16.22 35.68,16.18 35.92,16.18 C36.37,16.18 36.72,16.32 36.99,16.6 C37.26,16.88 37.39,17.26 37.39,17.76 C37.39,18.25 37.26,18.63 36.99,18.91 C36.72,19.19 36.37,19.32 35.92,19.32 C35.47,19.32 35.11,19.18 34.84,18.91 C34.57,18.63 34.44,18.26 34.44,17.77 L34.46,17.77 Z M35.09,17.75 C35.09,18.09 35.17,18.35 35.33,18.53 C35.49,18.71 35.69,18.8 35.93,18.8 C36.17,18.8 36.37,18.71 36.53,18.54 C36.69,18.36 36.76,18.1 36.76,17.75 C36.76,17.4 36.68,17.14 36.53,16.97 C36.38,16.8 36.18,16.71 35.92,16.71 C35.67,16.71 35.46,16.8 35.31,16.97 C35.16,17.14 35.08,17.4 35.08,17.75 L35.09,17.75 Z M37.88,19.27 L37.88,16.24 L38.48,16.24 L39.72,18.26 L39.72,16.24 L40.29,16.24 L40.29,19.27 L39.68,19.27 L38.46,17.29 L38.46,19.27 L37.89,19.27 L37.88,19.27 Z" id="Shape" fill="#2B2A29" fill-rule="nonzero"></path>
                <path d="M5.73,44.39 L5.73,41.36 L6.71,41.36 C7.08,41.36 7.32,41.38 7.44,41.41 C7.61,41.46 7.76,41.55 7.88,41.71 C8,41.86 8.06,42.06 8.06,42.3 C8.06,42.49 8.03,42.64 7.96,42.77 C7.89,42.9 7.81,43 7.7,43.07 C7.6,43.14 7.49,43.19 7.38,43.21 C7.23,43.24 7.02,43.25 6.74,43.25 L6.34,43.25 L6.34,44.39 L5.73,44.39 Z M6.34,41.87 L6.34,42.73 L6.67,42.73 C6.91,42.73 7.07,42.71 7.15,42.68 C7.23,42.65 7.29,42.6 7.34,42.53 C7.39,42.46 7.41,42.38 7.41,42.29 C7.41,42.18 7.38,42.09 7.31,42.02 C7.25,41.95 7.16,41.9 7.06,41.89 C6.99,41.88 6.84,41.87 6.62,41.87 L6.32,41.87 L6.34,41.87 Z M8.41,43.26 C8.41,43.07 8.46,42.88 8.55,42.7 C8.65,42.52 8.78,42.38 8.95,42.29 C9.12,42.19 9.32,42.15 9.53,42.15 C9.86,42.15 10.13,42.26 10.35,42.47 C10.56,42.69 10.67,42.96 10.67,43.29 C10.67,43.62 10.56,43.9 10.35,44.12 C10.14,44.34 9.87,44.45 9.54,44.45 C9.34,44.45 9.15,44.4 8.96,44.31 C8.78,44.22 8.64,44.09 8.54,43.91 C8.45,43.73 8.4,43.52 8.4,43.27 L8.41,43.26 Z M9.01,43.29 C9.01,43.51 9.06,43.67 9.17,43.79 C9.27,43.91 9.4,43.96 9.55,43.96 C9.7,43.96 9.83,43.9 9.93,43.79 C10.03,43.67 10.08,43.51 10.08,43.29 C10.08,43.08 10.03,42.91 9.93,42.79 C9.83,42.67 9.7,42.62 9.55,42.62 C9.4,42.62 9.27,42.68 9.17,42.79 C9.07,42.91 9.01,43.07 9.01,43.29 Z M11.54,44.39 L10.84,42.19 L11.4,42.19 L11.81,43.63 L12.19,42.19 L12.75,42.19 L13.12,43.63 L13.54,42.19 L14.11,42.19 L13.41,44.39 L12.85,44.39 L12.47,42.98 L12.1,44.39 L11.54,44.39 Z M15.69,43.69 L16.27,43.79 C16.2,44 16.08,44.16 15.92,44.27 C15.76,44.38 15.56,44.44 15.32,44.44 C14.94,44.44 14.66,44.32 14.47,44.07 C14.33,43.87 14.25,43.62 14.25,43.31 C14.25,42.95 14.35,42.66 14.54,42.45 C14.73,42.24 14.97,42.14 15.26,42.14 C15.59,42.14 15.84,42.25 16.03,42.46 C16.22,42.68 16.31,43.01 16.3,43.45 L14.84,43.45 C14.84,43.62 14.89,43.76 14.98,43.85 C15.07,43.95 15.18,43.99 15.32,43.99 C15.41,43.99 15.49,43.97 15.55,43.92 C15.61,43.87 15.66,43.79 15.69,43.68 L15.69,43.69 Z M15.72,43.1 C15.72,42.93 15.67,42.8 15.59,42.72 C15.51,42.63 15.41,42.59 15.29,42.59 C15.16,42.59 15.06,42.64 14.98,42.73 C14.9,42.82 14.86,42.95 14.86,43.11 L15.73,43.11 L15.72,43.1 Z M17.33,44.39 L16.75,44.39 L16.75,42.19 L17.29,42.19 L17.29,42.5 C17.38,42.35 17.47,42.26 17.54,42.21 C17.61,42.16 17.7,42.14 17.79,42.14 C17.92,42.14 18.05,42.18 18.17,42.25 L17.99,42.76 C17.89,42.7 17.8,42.67 17.72,42.67 C17.64,42.67 17.57,42.69 17.51,42.74 C17.45,42.78 17.41,42.87 17.38,42.98 C17.35,43.1 17.33,43.34 17.33,43.72 L17.33,44.4 L17.33,44.39 Z" id="Shape" fill="#2B2A29" fill-rule="nonzero"></path>
                <path d="M205.47,44.28 L204.39,41.25 L205.05,41.25 L205.82,43.49 L206.56,41.25 L207.21,41.25 L206.12,44.28 L205.47,44.28 Z M207.07,43.15 C207.07,42.96 207.12,42.77 207.21,42.59 C207.31,42.41 207.44,42.27 207.61,42.18 C207.78,42.08 207.98,42.04 208.19,42.04 C208.52,42.04 208.79,42.15 209.01,42.36 C209.22,42.58 209.33,42.85 209.33,43.18 C209.33,43.51 209.22,43.79 209.01,44.01 C208.8,44.23 208.53,44.34 208.2,44.34 C208,44.34 207.81,44.29 207.62,44.2 C207.44,44.11 207.3,43.98 207.2,43.8 C207.11,43.62 207.06,43.41 207.06,43.16 L207.07,43.15 Z M207.67,43.18 C207.67,43.4 207.72,43.56 207.83,43.68 C207.93,43.8 208.06,43.85 208.21,43.85 C208.36,43.85 208.49,43.79 208.59,43.68 C208.69,43.56 208.74,43.4 208.74,43.18 C208.74,42.97 208.69,42.8 208.59,42.68 C208.49,42.56 208.36,42.51 208.21,42.51 C208.06,42.51 207.93,42.57 207.83,42.68 C207.73,42.8 207.67,42.96 207.67,43.18 Z M209.8,44.28 L209.8,41.25 L210.38,41.25 L210.38,44.28 L209.8,44.28 Z M212.42,44.28 L212.42,43.95 C212.34,44.07 212.23,44.16 212.1,44.23 C211.97,44.3 211.83,44.33 211.69,44.33 C211.54,44.33 211.41,44.3 211.29,44.23 C211.17,44.17 211.09,44.07 211.04,43.96 C210.99,43.84 210.96,43.68 210.96,43.47 L210.96,42.08 L211.54,42.08 L211.54,43.09 C211.54,43.4 211.55,43.59 211.57,43.66 C211.59,43.73 211.63,43.78 211.69,43.83 C211.75,43.87 211.82,43.89 211.91,43.89 C212.01,43.89 212.1,43.86 212.18,43.81 C212.26,43.75 212.31,43.69 212.34,43.61 C212.37,43.53 212.38,43.33 212.38,43.02 L212.38,42.09 L212.96,42.09 L212.96,44.29 L212.42,44.29 L212.42,44.28 Z M213.52,42.08 L214.06,42.08 L214.06,42.38 C214.25,42.15 214.48,42.03 214.74,42.03 C214.88,42.03 215,42.06 215.11,42.12 C215.21,42.18 215.3,42.27 215.36,42.38 C215.46,42.26 215.56,42.18 215.67,42.12 C215.78,42.06 215.9,42.03 216.03,42.03 C216.19,42.03 216.33,42.06 216.44,42.13 C216.55,42.19 216.63,42.29 216.69,42.42 C216.73,42.51 216.75,42.67 216.75,42.88 L216.75,44.28 L216.17,44.28 L216.17,43.03 C216.17,42.81 216.15,42.67 216.11,42.61 C216.06,42.53 215.97,42.49 215.86,42.49 C215.78,42.49 215.7,42.51 215.63,42.56 C215.56,42.61 215.51,42.68 215.48,42.78 C215.45,42.88 215.43,43.03 215.43,43.23 L215.43,44.28 L214.85,44.28 L214.85,43.08 C214.85,42.87 214.84,42.73 214.82,42.67 C214.8,42.61 214.77,42.56 214.72,42.53 C214.68,42.5 214.62,42.48 214.54,42.48 C214.45,42.48 214.37,42.5 214.3,42.55 C214.23,42.6 214.18,42.67 214.15,42.76 C214.12,42.85 214.1,43 214.1,43.21 L214.1,44.28 L213.52,44.28 L213.52,42.08 Z M218.6,43.58 L219.18,43.68 C219.11,43.89 218.99,44.05 218.83,44.16 C218.67,44.27 218.47,44.33 218.23,44.33 C217.85,44.33 217.57,44.21 217.38,43.96 C217.24,43.76 217.16,43.51 217.16,43.2 C217.16,42.84 217.26,42.55 217.45,42.34 C217.64,42.13 217.88,42.03 218.17,42.03 C218.5,42.03 218.75,42.14 218.94,42.35 C219.13,42.57 219.22,42.9 219.21,43.34 L217.75,43.34 C217.75,43.51 217.8,43.65 217.89,43.74 C217.98,43.84 218.09,43.88 218.23,43.88 C218.32,43.88 218.4,43.86 218.46,43.81 C218.52,43.76 218.57,43.68 218.6,43.57 L218.6,43.58 Z M218.63,42.99 C218.63,42.82 218.58,42.69 218.5,42.61 C218.42,42.52 218.32,42.48 218.2,42.48 C218.07,42.48 217.97,42.53 217.89,42.62 C217.81,42.71 217.77,42.84 217.77,43 L218.64,43 L218.63,42.99 Z" id="Shape" fill="#2B2A29" fill-rule="nonzero"></path>
                <g id="_45770680" fill="#2B2A29">
                    <g id="Group" transform="translate(0.900000, 0.900000)">
                        <path d="M1.66,1.79 C1.94,1.79 2.17,2.02 2.17,2.3 C2.17,2.58 1.94,2.81 1.66,2.81 C1.38,2.81 1.15,2.58 1.15,2.3 C1.15,2.02 1.38,1.79 1.66,1.79 Z" id="Path"></path>
                        <path d="M3.96,1.79 C4.24,1.79 4.47,2.02 4.47,2.3 C4.47,2.58 4.24,2.81 3.96,2.81 C3.68,2.81 3.45,2.58 3.45,2.3 C3.45,2.02 3.68,1.79 3.96,1.79 Z" id="Path"></path>
                        <path d="M2.81,1.79 C3.09,1.79 3.32,2.02 3.32,2.3 C3.32,2.58 3.09,2.81 2.81,2.81 C2.53,2.81 2.3,2.58 2.3,2.3 C2.3,2.02 2.53,1.79 2.81,1.79 Z" id="Path"></path>
                        <path d="M5.88,1.79 C6.16,1.79 6.39,2.02 6.39,2.3 C6.39,2.58 6.16,2.81 5.88,2.81 C5.6,2.81 5.37,2.58 5.37,2.3 C5.37,2.02 5.6,1.79 5.88,1.79 Z" id="Path"></path>
                        <path d="M0.51,1.79 C0.79,1.79 1.02,2.02 1.02,2.3 C1.02,2.58 0.79,2.81 0.51,2.81 C0.23,2.81 0,2.58 0,2.3 C0,2.02 0.23,1.79 0.51,1.79 Z" id="Path"></path>
                        <path d="M1.66,3.58 C1.94,3.58 2.17,3.81 2.17,4.09 C2.17,4.37 1.94,4.6 1.66,4.6 C1.38,4.6 1.15,4.37 1.15,4.09 C1.15,3.81 1.38,3.58 1.66,3.58 Z" id="Path"></path>
                        <path d="M3.96,3.58 C4.24,3.58 4.47,3.81 4.47,4.09 C4.47,4.37 4.24,4.6 3.96,4.6 C3.68,4.6 3.45,4.37 3.45,4.09 C3.45,3.81 3.68,3.58 3.96,3.58 Z" id="Path"></path>
                        <path d="M2.81,3.58 C3.09,3.58 3.32,3.81 3.32,4.09 C3.32,4.37 3.09,4.6 2.81,4.6 C2.53,4.6 2.3,4.37 2.3,4.09 C2.3,3.81 2.53,3.58 2.81,3.58 Z" id="Path"></path>
                        <path d="M5.88,3.58 C6.16,3.58 6.39,3.81 6.39,4.09 C6.39,4.37 6.16,4.6 5.88,4.6 C5.6,4.6 5.37,4.37 5.37,4.09 C5.37,3.81 5.6,3.58 5.88,3.58 Z" id="Path"></path>
                        <path d="M0.51,3.58 C0.79,3.58 1.02,3.81 1.02,4.09 C1.02,4.37 0.79,4.6 0.51,4.6 C0.23,4.6 0,4.37 0,4.09 C0,3.81 0.23,3.58 0.51,3.58 Z" id="Path"></path>
                        <path d="M1.66,5.37 C1.94,5.37 2.17,5.6 2.17,5.88 C2.17,6.16 1.94,6.39 1.66,6.39 C1.38,6.39 1.15,6.16 1.15,5.88 C1.15,5.6 1.38,5.37 1.66,5.37 Z" id="Path"></path>
                        <path d="M3.96,5.37 C4.24,5.37 4.47,5.6 4.47,5.88 C4.47,6.16 4.24,6.39 3.96,6.39 C3.68,6.39 3.45,6.16 3.45,5.88 C3.45,5.6 3.68,5.37 3.96,5.37 Z" id="Path"></path>
                        <path d="M2.81,5.37 C3.09,5.37 3.32,5.6 3.32,5.88 C3.32,6.16 3.09,6.39 2.81,6.39 C2.53,6.39 2.3,6.16 2.3,5.88 C2.3,5.6 2.53,5.37 2.81,5.37 Z" id="Path"></path>
                        <path d="M5.88,5.37 C6.16,5.37 6.39,5.6 6.39,5.88 C6.39,6.16 6.16,6.39 5.88,6.39 C5.6,6.39 5.37,6.16 5.37,5.88 C5.37,5.6 5.6,5.37 5.88,5.37 Z" id="Path"></path>
                        <path d="M0.51,5.37 C0.79,5.37 1.02,5.6 1.02,5.88 C1.02,6.16 0.79,6.39 0.51,6.39 C0.23,6.39 0,6.16 0,5.88 C0,5.6 0.23,5.37 0.51,5.37 Z" id="Path"></path>
                        <path d="M1.66,0 C1.94,0 2.17,0.23 2.17,0.51 C2.17,0.79 1.94,1.02 1.66,1.02 C1.38,1.02 1.15,0.79 1.15,0.51 C1.15,0.23 1.38,0 1.66,0 Z" id="Path"></path>
                        <path d="M3.96,0 C4.24,0 4.47,0.23 4.47,0.51 C4.47,0.79 4.24,1.02 3.96,1.02 C3.68,1.02 3.45,0.79 3.45,0.51 C3.45,0.23 3.68,0 3.96,0 Z" id="Path"></path>
                        <path d="M2.81,0 C3.09,0 3.32,0.23 3.32,0.51 C3.32,0.79 3.09,1.02 2.81,1.02 C2.53,1.02 2.3,0.79 2.3,0.51 C2.3,0.23 2.53,0 2.81,0 Z" id="Path"></path>
                        <path d="M5.88,0 C6.16,0 6.39,0.23 6.39,0.51 C6.39,0.79 6.16,1.02 5.88,1.02 C5.6,1.02 5.37,0.79 5.37,0.51 C5.37,0.23 5.6,0 5.88,0 Z" id="Path"></path>
                        <path d="M0.51,0 C0.79,0 1.02,0.23 1.02,0.51 C1.02,0.79 0.79,1.02 0.51,1.02 C0.23,1.02 0,0.79 0,0.51 C0,0.23 0.23,0 0.51,0 Z" id="Path"></path>
                    </g>
                    <path d="M1.41,0 L6.78,0 C7.55,0 8.19,0.63 8.19,1.41 L8.19,6.78 C8.19,7.55 7.56,8.19 6.78,8.19 L1.41,8.19 C0.64,8.19 0,7.56 0,6.78 L0,1.41 C0,0.64 0.63,0 1.41,0 Z M1.41,0.26 L6.78,0.26 C7.41,0.26 7.93,0.78 7.93,1.41 L7.93,6.78 C7.93,7.41 7.41,7.93 6.78,7.93 L1.41,7.93 C0.78,7.93 0.26,7.41 0.26,6.78 L0.26,1.41 C0.26,0.78 0.78,0.26 1.41,0.26 Z" id="Shape"></path>
                    <polygon id="Path" points="5.69 0.26 5.95 0.26 5.95 7.93 5.69 7.93"></polygon>
                    <path d="M9.21,6.81 L11.3,1.38 L12.07,1.38 L14.29,6.81 L13.47,6.81 L12.84,5.17 L10.57,5.17 L9.97,6.81 L9.21,6.81 Z M10.78,4.58 L12.62,4.58 L12.05,3.08 C11.88,2.62 11.75,2.25 11.67,1.95 C11.6,2.3 11.5,2.64 11.38,2.99 L10.78,4.58 Z M14.84,6.81 L14.84,1.38 L16.88,1.38 C17.29,1.38 17.63,1.44 17.88,1.54 C18.13,1.65 18.33,1.82 18.47,2.05 C18.61,2.28 18.68,2.52 18.68,2.77 C18.68,3 18.62,3.22 18.49,3.42 C18.36,3.62 18.17,3.79 17.92,3.92 C18.25,4.02 18.5,4.18 18.68,4.41 C18.86,4.64 18.95,4.92 18.95,5.23 C18.95,5.48 18.9,5.72 18.79,5.94 C18.68,6.16 18.55,6.33 18.39,6.45 C18.23,6.57 18.03,6.66 17.8,6.72 C17.56,6.78 17.27,6.81 16.92,6.81 L14.85,6.81 L14.84,6.81 Z M15.56,3.66 L16.73,3.66 C17.05,3.66 17.28,3.64 17.42,3.6 C17.6,3.55 17.74,3.46 17.83,3.33 C17.92,3.2 17.97,3.05 17.97,2.86 C17.97,2.68 17.93,2.52 17.84,2.38 C17.75,2.24 17.63,2.15 17.47,2.1 C17.31,2.05 17.03,2.02 16.64,2.02 L15.56,2.02 L15.56,3.66 Z M15.56,6.17 L16.91,6.17 C17.14,6.17 17.31,6.16 17.4,6.14 C17.57,6.11 17.7,6.06 17.81,5.99 C17.92,5.92 18.01,5.82 18.08,5.69 C18.15,5.56 18.19,5.41 18.19,5.23 C18.19,5.03 18.14,4.85 18.03,4.7 C17.93,4.55 17.78,4.45 17.6,4.39 C17.42,4.33 17.15,4.3 16.81,4.3 L15.56,4.3 L15.56,6.17 Z M19.33,6.81 L21.42,1.38 L22.19,1.38 L24.41,6.81 L23.59,6.81 L22.96,5.17 L20.69,5.17 L20.09,6.81 L19.33,6.81 Z M20.9,4.58 L22.74,4.58 L22.17,3.08 C22,2.62 21.87,2.25 21.79,1.95 C21.72,2.3 21.62,2.64 21.5,2.99 L20.9,4.58 Z M28.86,4.91 L29.58,5.09 C29.43,5.68 29.16,6.13 28.77,6.44 C28.38,6.75 27.9,6.9 27.33,6.9 C26.74,6.9 26.27,6.78 25.9,6.54 C25.53,6.3 25.25,5.96 25.06,5.51 C24.87,5.06 24.77,4.57 24.77,4.05 C24.77,3.49 24.88,2.99 25.09,2.57 C25.31,2.15 25.61,1.83 26.01,1.61 C26.41,1.39 26.85,1.28 27.33,1.28 C27.87,1.28 28.33,1.42 28.7,1.69 C29.07,1.97 29.33,2.35 29.47,2.86 L28.76,3.03 C28.63,2.63 28.45,2.35 28.21,2.17 C27.97,1.99 27.67,1.9 27.31,1.9 C26.89,1.9 26.55,2 26.26,2.2 C25.98,2.4 25.78,2.67 25.67,3.01 C25.56,3.35 25.5,3.69 25.5,4.05 C25.5,4.51 25.57,4.91 25.7,5.26 C25.84,5.6 26.04,5.86 26.33,6.03 C26.61,6.2 26.92,6.29 27.25,6.29 C27.65,6.29 27.99,6.17 28.27,5.94 C28.55,5.71 28.74,5.36 28.84,4.91 L28.86,4.91 Z M34.02,1.39 L34.74,1.39 L34.74,4.53 C34.74,5.07 34.68,5.51 34.55,5.83 C34.43,6.15 34.2,6.41 33.88,6.61 C33.56,6.81 33.14,6.91 32.61,6.91 C32.1,6.91 31.68,6.82 31.36,6.65 C31.04,6.48 30.81,6.22 30.67,5.89 C30.53,5.56 30.46,5.11 30.46,4.53 L30.46,1.39 L31.18,1.39 L31.18,4.52 C31.18,4.99 31.22,5.34 31.31,5.56 C31.4,5.78 31.55,5.96 31.76,6.08 C31.97,6.2 32.24,6.26 32.54,6.26 C33.07,6.26 33.44,6.14 33.67,5.9 C33.89,5.66 34.01,5.2 34.01,4.52 L34.01,1.39 L34.02,1.39 Z M35.69,5.07 L36.37,5.01 C36.4,5.28 36.48,5.5 36.59,5.68 C36.71,5.85 36.89,5.99 37.14,6.1 C37.39,6.21 37.66,6.26 37.97,6.26 C38.24,6.26 38.49,6.22 38.7,6.14 C38.91,6.06 39.07,5.95 39.17,5.81 C39.27,5.67 39.32,5.51 39.32,5.34 C39.32,5.17 39.27,5.02 39.17,4.89 C39.07,4.76 38.91,4.66 38.68,4.57 C38.53,4.51 38.21,4.42 37.71,4.3 C37.21,4.18 36.86,4.07 36.66,3.96 C36.4,3.82 36.21,3.66 36.08,3.45 C35.95,3.25 35.89,3.02 35.89,2.77 C35.89,2.5 35.97,2.24 36.12,2 C36.28,1.76 36.5,1.58 36.8,1.46 C37.1,1.34 37.43,1.28 37.8,1.28 C38.2,1.28 38.56,1.34 38.87,1.47 C39.18,1.6 39.41,1.79 39.58,2.04 C39.74,2.29 39.83,2.58 39.85,2.9 L39.16,2.95 C39.12,2.61 39,2.35 38.78,2.17 C38.57,1.99 38.25,1.91 37.83,1.91 C37.4,1.91 37.08,1.99 36.88,2.15 C36.68,2.31 36.58,2.5 36.58,2.73 C36.58,2.93 36.65,3.09 36.79,3.21 C36.93,3.34 37.29,3.47 37.87,3.6 C38.45,3.73 38.85,3.85 39.07,3.95 C39.39,4.1 39.62,4.28 39.77,4.5 C39.92,4.72 39.99,4.98 39.99,5.27 C39.99,5.56 39.91,5.83 39.74,6.09 C39.57,6.35 39.34,6.54 39.03,6.69 C38.72,6.83 38.37,6.9 37.98,6.9 C37.49,6.9 37.08,6.83 36.75,6.69 C36.42,6.55 36.16,6.33 35.97,6.04 C35.78,5.75 35.68,5.43 35.67,5.06 L35.69,5.07 Z" id="Shape" fill-rule="nonzero"></path>
                </g>
                <g id="_45770488" transform="translate(183.900000, 31.180000)" stroke="#2B2A29" stroke-width="0.5">
                    <path d="M3.67,2.92 L3.84,2.92 C4.02,2.92 4.17,3.07 4.17,3.25 L4.17,5.08 C4.17,5.26 4.02,5.41 3.84,5.41 L3.67,5.41 C3.49,5.41 3.34,5.26 3.34,5.08 L3.34,3.25 C3.34,3.07 3.49,2.92 3.67,2.92 Z" id="Path" fill="#2B2A29" stroke-linecap="round" stroke-linejoin="round"></path>
                    <path d="M1.17,2.92 L1.34,2.92 C1.52,2.92 1.67,3.07 1.67,3.25 L1.67,5.08 C1.67,5.26 1.52,5.41 1.34,5.41 L1.17,5.41 C0.99,5.41 0.84,5.26 0.84,5.08 L0.84,3.25 C0.84,3.07 0.99,2.92 1.17,2.92 Z" id="Path" fill="#2B2A29" stroke-linecap="round" stroke-linejoin="round"></path>
                    <path d="M0.83,4.36 C0.3,3.89 0,3.21 0,2.5 C0,1.12 1.12,0 2.5,0 C3.88,0 5,1.12 5,2.5 C5,3.23 4.69,3.91 4.14,4.39" id="Path"></path>
                </g>
                <path d="M68.23,30.22 C68.77,30.53 69.11,31.12 69.11,31.75 C69.11,32.72 68.32,33.51 67.35,33.51 C66.38,33.51 65.58,32.72 65.58,31.75 C65.58,31.12 65.92,30.53 66.46,30.22 M67.385,29.51 L67.385,31.86" id="Shape" stroke="#2B2A29" stroke-width="0.5" stroke-linecap="round"></path>
                <g id="_45769552" transform="translate(78.050000, 29.520000)" stroke="#2B2A29" stroke-linecap="round" stroke-linejoin="round" stroke-width="0.5">
                    <polygon id="Path" points="1 1 2 1 2 3 1 3"></polygon>
                    <polygon id="Path" points="2 3 2 1 3 0 3 4"></polygon>
                    <path d="M0,0 L4,4" id="Path"></path>
                    <path d="M4,0 L0,4" id="Path"></path>
                </g>
                <path d="M90.74,35.58 L91.29,35.58 L92.21,33.02 L91.66,33.02 L91.03,34.91 L89.29,30.15 L88.74,30.15 L87.74,32.71 L88.29,32.71 L89.01,30.75 L90.74,35.58 Z M93.34,34.99 L93.83,35.07 C93.77,35.25 93.67,35.39 93.53,35.48 C93.39,35.57 93.22,35.62 93.02,35.62 C92.7,35.62 92.46,35.52 92.3,35.3 C92.18,35.13 92.12,34.92 92.12,34.66 C92.12,34.35 92.2,34.11 92.36,33.94 C92.52,33.77 92.72,33.68 92.97,33.68 C93.25,33.68 93.46,33.77 93.62,33.95 C93.78,34.13 93.86,34.41 93.85,34.79 L92.62,34.79 C92.62,34.94 92.66,35.05 92.74,35.13 C92.82,35.21 92.91,35.25 93.02,35.25 C93.1,35.25 93.16,35.23 93.21,35.19 C93.26,35.15 93.3,35.08 93.33,34.99 L93.34,34.99 Z M93.37,34.49 C93.37,34.35 93.33,34.24 93.26,34.17 C93.19,34.1 93.11,34.06 93,34.06 C92.89,34.06 92.8,34.1 92.73,34.18 C92.66,34.26 92.63,34.36 92.63,34.5 L93.36,34.5 L93.37,34.49 Z M94.73,35.58 L94.24,35.58 L94.24,33.73 L94.7,33.73 L94.7,33.99 C94.78,33.87 94.85,33.78 94.91,33.74 C94.97,33.7 95.04,33.68 95.12,33.68 C95.23,33.68 95.34,33.71 95.44,33.77 L95.29,34.2 C95.21,34.15 95.13,34.12 95.06,34.12 C94.99,34.12 94.93,34.14 94.89,34.18 C94.84,34.22 94.8,34.29 94.78,34.39 C94.75,34.49 94.74,34.7 94.74,35.01 L94.74,35.58 L94.73,35.58 Z M95.54,34.63 C95.54,34.47 95.58,34.31 95.66,34.16 C95.74,34.01 95.85,33.89 96,33.81 C96.15,33.73 96.31,33.69 96.49,33.69 C96.77,33.69 97,33.78 97.18,33.96 C97.36,34.14 97.45,34.37 97.45,34.65 C97.45,34.93 97.36,35.16 97.18,35.35 C97,35.53 96.77,35.63 96.5,35.63 C96.33,35.63 96.17,35.59 96.01,35.51 C95.86,35.43 95.74,35.32 95.66,35.17 C95.58,35.02 95.54,34.84 95.54,34.63 Z M96.04,34.66 C96.04,34.84 96.08,34.98 96.17,35.08 C96.26,35.18 96.36,35.23 96.49,35.23 C96.62,35.23 96.73,35.18 96.81,35.08 C96.9,34.98 96.94,34.84 96.94,34.65 C96.94,34.47 96.9,34.33 96.81,34.23 C96.72,34.13 96.62,34.08 96.49,34.08 C96.36,34.08 96.25,34.13 96.17,34.23 C96.08,34.33 96.04,34.47 96.04,34.65 L96.04,34.66 Z M91.81,32.72 L91.81,32.44 C91.74,32.54 91.65,32.62 91.54,32.67 C91.43,32.73 91.31,32.76 91.19,32.76 C91.07,32.76 90.95,32.73 90.86,32.68 C90.76,32.63 90.69,32.55 90.64,32.45 C90.6,32.35 90.57,32.21 90.57,32.04 L90.57,30.87 L91.06,30.87 L91.06,31.72 C91.06,31.98 91.07,32.14 91.09,32.2 C91.11,32.26 91.14,32.3 91.19,32.34 C91.24,32.37 91.3,32.39 91.37,32.39 C91.45,32.39 91.53,32.37 91.6,32.32 C91.67,32.27 91.71,32.22 91.74,32.15 C91.76,32.08 91.78,31.91 91.78,31.65 L91.78,30.87 L92.27,30.87 L92.27,32.72 L91.81,32.72 Z M94.47,32.72 L94.01,32.72 L94.01,32.45 C93.93,32.56 93.84,32.63 93.74,32.69 C93.64,32.74 93.53,32.77 93.43,32.77 C93.22,32.77 93.03,32.68 92.88,32.51 C92.73,32.34 92.65,32.1 92.65,31.79 C92.65,31.48 92.72,31.24 92.87,31.07 C93.02,30.91 93.2,30.82 93.43,30.82 C93.64,30.82 93.82,30.91 93.97,31.08 L93.97,30.16 L94.46,30.16 L94.46,32.72 L94.47,32.72 Z M93.16,31.75 C93.16,31.95 93.19,32.09 93.24,32.18 C93.32,32.31 93.43,32.37 93.57,32.37 C93.68,32.37 93.78,32.32 93.86,32.23 C93.94,32.13 93.98,31.99 93.98,31.8 C93.98,31.59 93.94,31.43 93.87,31.34 C93.79,31.25 93.69,31.2 93.57,31.2 C93.45,31.2 93.36,31.25 93.28,31.34 C93.2,31.43 93.16,31.57 93.16,31.75 Z M94.95,30.61 L94.95,30.16 L95.44,30.16 L95.44,30.61 L94.95,30.61 Z M94.95,32.72 L94.95,30.87 L95.44,30.87 L95.44,32.72 L94.95,32.72 Z M95.83,31.77 C95.83,31.61 95.87,31.45 95.95,31.3 C96.03,31.15 96.14,31.03 96.29,30.95 C96.44,30.87 96.6,30.83 96.78,30.83 C97.06,30.83 97.29,30.92 97.47,31.1 C97.65,31.28 97.74,31.51 97.74,31.79 C97.74,32.07 97.65,32.3 97.47,32.49 C97.29,32.67 97.06,32.77 96.79,32.77 C96.62,32.77 96.46,32.73 96.3,32.65 C96.15,32.57 96.03,32.46 95.95,32.31 C95.87,32.16 95.83,31.98 95.83,31.77 Z M96.33,31.8 C96.33,31.98 96.37,32.12 96.46,32.22 C96.55,32.32 96.65,32.37 96.78,32.37 C96.91,32.37 97.02,32.32 97.1,32.22 C97.19,32.12 97.23,31.98 97.23,31.79 C97.23,31.61 97.19,31.47 97.1,31.37 C97.01,31.27 96.91,31.22 96.78,31.22 C96.65,31.22 96.54,31.27 96.46,31.37 C96.37,31.47 96.33,31.61 96.33,31.79 L96.33,31.8 Z M88.71,31.73 L89.29,31.73 L89.29,32.19 L88.71,32.19 L88.71,31.73 Z" id="Shape" fill="#2B2A29" fill-rule="nonzero"></path>
                <g id="_45768856" transform="translate(141.340000, 29.990000)" stroke="#2B2A29" stroke-linecap="round" stroke-linejoin="round" stroke-width="0.5">
                    <polygon id="Path" points="4.42 1.5 1.82 0 1.82 3"></polygon>
                    <rect id="Rectangle" x="0" y="0" width="1" height="3"></rect>
                </g>
                <g id="_45768976" transform="translate(153.650000, 29.990000)" stroke="#2B2A29" stroke-linecap="round" stroke-linejoin="round" stroke-width="0.5">
                    <polygon id="Path" points="2.6 1.5 0 0 0 3"></polygon>
                    <polygon id="Path" points="5.2 1.5 2.6 0 2.6 3"></polygon>
                </g>
                <text id="Input" fill="#2B2A29" font-family="Helvetica" font-size="3.5277" font-weight="normal">
                    <tspan x="126.56" y="33.18">Input</tspan>
                </text>
                <text id="Clean!" fill="#2B2A29" font-family="Helvetica" font-size="2.8222" font-weight="normal">
                    <tspan x="100.91" y="20.1">Clean!</tspan>
                </text>
                <text id="Aroio" fill="#2B2A29" font-family="Helvetica" font-size="2.8222" font-weight="normal">
                    <tspan x="101.99" y="35.32">Aroio</tspan>
                </text>
                <text id="Aux" fill="#2B2A29" font-family="Helvetica" font-size="2.8222" font-weight="normal">
                    <tspan x="104.02" y="30.24">Aux</tspan>
                </text>
                <text id="Mute" fill="#2B2A29" font-family="Helvetica" font-size="2.8222" font-weight="normal">
                    <tspan x="102.82" y="25.16">Mute</tspan>
                </text>
                <text id="Network" fill="#2B2A29" font-family="Helvetica" font-size="2.8222" font-weight="normal">
                    <tspan x="98.25" y="15.02">Network</tspan>
                </text>
                <text id="IR" fill="#2B2A29" font-family="Helvetica" font-size="2.8222" font-weight="normal">
                    <tspan x="53.46" y="29.74">IR</tspan>
                </text>
            </g>
        </g>
    </g>
</svg>